<svg xmlns="http://www.w3.org/2000/svg" width="50" height="50" viewBox="0 0 50 50"><path d="M35.1,0H14.894A14.911,14.911,0,0,0,0,14.9v20.21A14.911,14.911,0,0,0,14.9,50h20.21A14.911,14.911,0,0,0,50,35.1V14.894A14.911,14.911,0,0,0,35.1,0Zm9.867,35.1A9.867,9.867,0,0,1,35.1,44.971H14.894A9.867,9.867,0,0,1,5.029,35.1V14.894A9.867,9.867,0,0,1,14.9,5.029h20.21A9.867,9.867,0,0,1,44.971,14.9v20.21Z"/><path d="M17.748,4.819a12.931,12.931,0,1,0,12.935,12.93A12.948,12.948,0,0,0,17.748,4.819Zm0,20.834a7.9,7.9,0,1,1,7.9-7.9A7.9,7.9,0,0,1,17.748,25.653Z" transform="translate(7.251 7.25)"/><circle cx="3.098" cy="3.098" r="3.098" transform="translate(34.859 9.068)"/></svg>