<svg xmlns="http://www.w3.org/2000/svg" width="50" height="50" viewBox="0 0 50 50"><path d="M30,19.918v9.243H24.642V20.536c0-2.165-.775-3.642-2.715-3.642a2.932,2.932,0,0,0-2.75,1.96A3.7,3.7,0,0,0,19,20.159v9H13.64s.073-14.6,0-16.117H19v2.283l-.035.052H19v-.05a5.315,5.315,0,0,1,4.83-2.665c3.525,0,6.17,2.3,6.17,7.255ZM8.032,5.271a2.794,2.794,0,1,0-.07,5.573H8a2.795,2.795,0,1,0,.035-5.572ZM5.317,29.161h5.36V13.043H5.317Z" transform="translate(7.5 7.906)"/><path d="M25,45A20,20,0,1,0,5,25,20,20,0,0,0,25,45Zm0,5A25,25,0,1,1,50,25,25,25,0,0,1,25,50Z"/></svg>