<svg xmlns="http://www.w3.org/2000/svg" width="50" height="50" viewBox="0 0 50 50"><path d="M25,45A20,20,0,1,0,5,25,20,20,0,0,0,25,45Zm0,5A25,25,0,1,1,50,25,25,25,0,0,1,25,50Z"/><path d="M29.511,22.793c-3.342-.55-4.85-3.975-4.91-4.118a1.06,1.06,0,0,1-.13-.88c.183-.427.883-.65,1.345-.795q.184-.057.365-.125a2.824,2.824,0,0,0,1-.595.947.947,0,0,0,.3-.682,1.07,1.07,0,0,0-.8-.927,1.45,1.45,0,0,0-.545-.107,1.21,1.21,0,0,0-.505.1,2.843,2.843,0,0,1-1.042.3.958.958,0,0,1-.345-.075l.03-.482.005-.073c.107-1.69.24-3.8-.32-5.045a6.79,6.79,0,0,0-1.53-2.19A6.4,6.4,0,0,0,20.6,5.891a7.23,7.23,0,0,0-2.855-.6l-.493,0a7.252,7.252,0,0,0-2.857.6,6.4,6.4,0,0,0-1.825,1.2,6.812,6.812,0,0,0-1.523,2.185c-.557,1.25-.425,3.352-.32,5.045l.035.557a1,1,0,0,1-.41.075,2.715,2.715,0,0,1-1.113-.3,1,1,0,0,0-.425-.087,1.526,1.526,0,0,0-.75.21,1.035,1.035,0,0,0-.528.675.933.933,0,0,0,.355.878,3.076,3.076,0,0,0,.933.532c.1.042.232.082.365.125.462.145,1.165.367,1.347.795a1.041,1.041,0,0,1-.12.85,8.186,8.186,0,0,1-1.27,1.975,7.05,7.05,0,0,1-1.52,1.343,5.59,5.59,0,0,1-2.133.827A.583.583,0,0,0,5,23.4a.708.708,0,0,0,.063.255,1.552,1.552,0,0,0,.847.725,9.64,9.64,0,0,0,2.445.638,2.923,2.923,0,0,1,.15.538c.04.187.082.38.142.585a.64.64,0,0,0,.67.487,3.212,3.212,0,0,0,.575-.08,6.554,6.554,0,0,1,1.312-.15,5.508,5.508,0,0,1,.938.083,4.431,4.431,0,0,1,1.75.9,5.672,5.672,0,0,0,3.455,1.347l.125-.005.18.005a5.686,5.686,0,0,0,3.455-1.345,4.5,4.5,0,0,1,1.75-.9,5.821,5.821,0,0,1,.94-.08,6.5,6.5,0,0,1,1.31.14,3.113,3.113,0,0,0,.575.07.641.641,0,0,0,.67-.48c.06-.2.1-.388.145-.58a2.786,2.786,0,0,1,.15-.535,9.879,9.879,0,0,0,2.443-.635,1.581,1.581,0,0,0,.847-.725A.743.743,0,0,0,30,23.4a.582.582,0,0,0-.49-.607Z" transform="translate(7.499 7.937)"/></svg>