<svg xmlns="http://www.w3.org/2000/svg" width="131.906" height="134.725" viewBox="0 0 131.906 134.725"><path d="M40.06.37c9.4,0,17.03,11.69,17.03,26.1s-7.63,26.1-17.03,26.1S23.03,40.89,23.03,26.47,30.66.37,40.06.37ZM61.71,63.55c19.94.04,22.42,13.25,39.23,35.86,8.38,16.45-2.5,26.82-21.15,22.38-8.46-4.31-14.41-5.83-20.38-5.63-10.34.36-12.95,7.18-24.98,6.7-9.28-.25-13.46-4.14-14.27-10.07-.87-6.3,1.56-10.28,4.52-15.49,11.5-20.28,23.39-36.29,37.03-33.75ZM7.17,39.08C.14,41.86-2.1,52.85,2.16,63.62S15.57,80.87,22.6,78.09s9.27-13.77,5.01-24.54S14.2,36.3,7.17,39.08Zm105.38,0c7.03,2.78,9.27,13.77,5.01,24.54S104.14,80.87,97.12,78.09s-9.27-13.77-5.01-24.54,13.41-17.25,20.44-14.47ZM79.35,0c9.4,0,17.03,11.69,17.03,26.1S88.75,52.2,79.35,52.2,62.32,40.52,62.32,26.1,69.95,0,79.35,0Z" transform="matrix(0.995, -0.105, 0.105, 0.995, -0.002, 12.514)" fill="#f7f7f7" fill-rule="evenodd" opacity="0.38"/></svg>