<svg xmlns="http://www.w3.org/2000/svg" width="37.629" height="36" viewBox="0 0 37.629 36"><path d="M24.136,25.351a21.131,21.131,0,0,1-4.631,3.831.654.654,0,0,1-.744.024,26.143,26.143,0,0,1-6.44-5.745,20.472,20.472,0,0,1-4.33-9.35A12.413,12.413,0,0,1,9.543,5.365a10.732,10.732,0,0,1,2.4-2.658A11.673,11.673,0,0,1,19.282,0a10.339,10.339,0,0,1,6.964,2.842A10.245,10.245,0,0,1,28.1,5.1a13.86,13.86,0,0,1,1.323,10.024,22.038,22.038,0,0,1-5.292,10.213v.009ZM7.754,22.827a1.1,1.1,0,1,1,0,2.2H5.69l-2.72,8.78H34.582l-2.952-8.78H29.924a1.1,1.1,0,0,1,0-2.2H33.2L37.629,36H0L4.079,22.827H7.754ZM18.8,5.668a5.474,5.474,0,1,1-5.473,5.473A5.475,5.475,0,0,1,18.8,5.668Z" transform="translate(0 0.001)" fill="#f7f7f7" fill-rule="evenodd"/></svg>