<svg xmlns="http://www.w3.org/2000/svg" xmlns:xlink="http://www.w3.org/1999/xlink" width="674" height="1000" viewBox="0 0 674 1000"><defs><clipPath id="a"><path d="M41.752,0h590.5C655.307,0,674,20.682,674,46.194V953.806c0,25.512-18.693,46.194-41.752,46.194H41.752C18.693,1000,0,979.318,0,953.806V46.194C0,20.682,18.693,0,41.752,0Z" fill="#066033"/></clipPath></defs><g transform="translate(57 51.246)"><g transform="translate(-57 -51.246)"><path d="M41.752,0h590.5C655.307,0,674,20.682,674,46.194V953.806c0,25.512-18.693,46.194-41.752,46.194H41.752C18.693,1000,0,979.318,0,953.806V46.194C0,20.682,18.693,0,41.752,0Z" fill="#066033"/><g clip-path="url(#a)"><path d="M-42.167,612.086s245.917-72.6,407.2-83.727S574.3,570.222,486.787,612.086,355.466,617.532,300.3,763.057s425.811,49.8,387.193,282.519-756.221,68.87-756.221,68.87Z" transform="translate(4.167 -56.425)" fill="#7df8bb"/></g></g><g transform="translate(7.959 458.754)"><path d="M756,611.154a.67.67,0,0,1-.859.393L224.055,413.927a.668.668,0,1,1,.466-1.253L755.608,610.3a.67.67,0,0,1,.395.859Z" transform="translate(-191.13 -235.462)" fill="#f2f2f2"/><path d="M514.444,147.5H387.893a37.486,37.486,0,0,0-37.443,37.443v11.439a1.738,1.738,0,0,0-2.2,1.7v8.8a1.738,1.738,0,0,0,2.2,1.7v13.319a1.738,1.738,0,0,0-2.2,1.7V245.58a1.738,1.738,0,0,0,2.2,1.7v8.041a1.738,1.738,0,0,0-2.2,1.7v21.991a1.738,1.738,0,0,0,2.2,1.7V512.93a37.486,37.486,0,0,0,37.443,37.443h126.55a37.486,37.486,0,0,0,37.443-37.444V184.943A37.486,37.486,0,0,0,514.444,147.5ZM543.97,512.93a29.56,29.56,0,0,1-29.527,29.527H387.893a29.56,29.56,0,0,1-29.527-29.527V184.943a29.56,29.56,0,0,1,29.527-29.527h126.55a29.56,29.56,0,0,1,29.527,29.527Z" transform="translate(-232.478 -147.5)" fill="#3f3d56"/><path d="M517.282,548.6H390.732a33.963,33.963,0,0,1-33.925-33.925V186.69a33.963,33.963,0,0,1,33.925-33.925h126.55a33.963,33.963,0,0,1,33.925,33.925V514.677A33.963,33.963,0,0,1,517.282,548.6Z" transform="translate(-235.317 -149.247)" fill="#e6e6e6"/><path d="M524.339,545.945h-132.8a22.907,22.907,0,0,1-22.881-22.881V183.544a22.907,22.907,0,0,1,22.881-22.881h17.319a3.786,3.786,0,0,1,3.782,3.782,11.185,11.185,0,0,0,11.172,11.172h66.5a11.185,11.185,0,0,0,11.172-11.172,3.786,3.786,0,0,1,3.782-3.782H524.34a22.907,22.907,0,0,1,22.881,22.881V523.064A22.907,22.907,0,0,1,524.339,545.945Z" transform="translate(-239.248 -151.867)" fill="#fff"/><path d="M502.087,170.435H486.254a1.759,1.759,0,0,1,0-3.519h15.833a1.759,1.759,0,0,1,0,3.519Z" transform="translate(-277.679 -153.942)" fill="#fff"/><circle cx="0.88" cy="0.88" r="0.88" transform="translate(234.524 14.294)" fill="#fff"/><rect width="187.298" height="2.005" transform="translate(124.953 77.515)" fill="#e6e6e6"/><rect width="187.298" height="2.005" transform="translate(124.953 117.609)" fill="#e6e6e6"/><rect width="187.298" height="2.005" transform="translate(124.953 200.471)" fill="#e6e6e6"/><rect width="187.298" height="2.005" transform="translate(124.953 283.332)" fill="#e6e6e6"/><rect width="187.298" height="2.005" transform="translate(124.953 348.151)" fill="#e6e6e6"/><rect width="2.005" height="122.955" transform="translate(258.969 78.518)" fill="#e6e6e6"/><rect width="2.005" height="147.716" transform="translate(165.206 201.437)" fill="#e6e6e6"/><rect width="141.765" height="2.005" transform="translate(166.208 241.957)" fill="#e6e6e6"/><rect width="2.005" height="44.924" transform="translate(259.184 349.153)" fill="#e6e6e6"/><rect width="130.564" height="2.005" transform="translate(129.072 159.861)" fill="#e6e6e6"/><rect width="2.005" height="76.534" transform="translate(154.491 8.303) rotate(-22.709)" fill="#e6e6e6"/><rect width="2.005" height="54.768" transform="translate(245.331 23.75)" fill="#e6e6e6"/><path d="M584.669,291.589c0,17.962-27.771,59.818-35.887,71.666a2.667,2.667,0,0,1-4.4,0c-8.115-11.849-35.887-53.7-35.887-71.666a38.089,38.089,0,0,1,76.179,0Z" transform="translate(-285.64 -182.667)" fill="#7df8bb"/><circle cx="19.379" cy="19.379" r="19.379" transform="translate(241.56 86.871)" fill="#fff"/><rect width="163.973" height="2.005" transform="translate(186.281 348.681) rotate(-63.412)" fill="#e6e6e6"/><path d="M719.973,490.942a6.72,6.72,0,0,0,9.567-3.826l23.876-.413-7.009-10.24-21.6,1.962a6.756,6.756,0,0,0-4.835,12.516Z" transform="translate(-354.61 -256.639)" fill="#ffb8b8"/><path d="M741.847,487.962a2.741,2.741,0,0,1-2.738-2.861l.482-10.948a2.728,2.728,0,0,1,2.425-2.6l27.659-3.172-.927,18.244-26.766,1.335Q741.915,487.962,741.847,487.962Z" transform="translate(-362.151 -253.956)" fill="#7df8bb"/><path d="M608.041,559.842l-7.788,2.543-13.516-28.828,11.494-3.753Z" transform="translate(-194.659 -175.77)" fill="#ffb8b8"/><path d="M787.508,727.571l-25.11,8.2-.1-.318a10.281,10.281,0,0,1,6.581-12.966h0l15.337-5.009Z" transform="translate(-369.674 -336.599)" fill="#2f2e41"/><path d="M646.942,577.107h-8.193l-3.9-31.6h12.091Z" transform="translate(-210.621 -180.98)" fill="#ffb8b8"/><path d="M817.956,746.909H791.54v-.334a10.282,10.282,0,0,1,10.282-10.282h16.134Z" transform="translate(-379.546 -342.841)" fill="#2f2e41"/><path d="M784.845,662.943a2.742,2.742,0,0,1-2.718-2.414l-10.563-88.3L756.1,597.045l18.141,46.36a2.757,2.757,0,0,1-1.347,3.46L757.508,654.4a2.74,2.74,0,0,1-3.805-1.6l-17.055-51.527a21.769,21.769,0,0,1-.484-12.007l11.027-45.254.129-.071,24.858-13.616.142.052,29.274,10.685-3.064,58.014,2.226,60.214a2.725,2.725,0,0,1-2.569,2.836l-13.171.815C784.96,662.941,784.9,662.943,784.845,662.943Z" transform="translate(-360.968 -274.507)" fill="#2f2e41"/><path d="M773.03,523.712c-4.374,0-8.058-1.246-10.364-4.413l-.074-.1,1.492-15.654-13.268,7.365a1.537,1.537,0,0,1-2.184-1.885l16.547-43.942,10.925-35.8a14.391,14.391,0,0,1,11.6-11.491h0c9.733-1.788,15.53,1.5,22.223,8.784a15.76,15.76,0,0,1,3.893,13.3l-6.332,36.192,1.861,32.45a2.736,2.736,0,0,1-1.188,2.986C802.984,514.8,787.115,523.711,773.03,523.712Z" transform="translate(-365.278 -237.015)" fill="#7df8bb"/><circle cx="16.413" cy="16.413" r="16.413" transform="translate(413.482 142.534)" fill="#ffb8b8"/><path d="M819.953,545.635a6.72,6.72,0,0,0,2.721-9.938l14.076-19.29-12.4-.588-11.466,18.408a6.756,6.756,0,0,0,7.065,11.408Z" transform="translate(-385.784 -269.695)" fill="#ffb8b8"/><path d="M828.95,506.245a2.743,2.743,0,0,1-1.955-.465l-9.319-6.5a2.728,2.728,0,0,1-.821-3.589l16.59-29.517L816.76,446.092a9.879,9.879,0,1,1,16.194-11.182l18.423,32.517a1.544,1.544,0,0,1,0,1.517l-20.432,35.943a2.746,2.746,0,0,1-1.778,1.318C829.095,506.222,829.022,506.235,828.95,506.245Z" transform="translate(-387.157 -241.191)" fill="#7df8bb"/><path d="M803.288,373.96c-1.625-1.213-3.873-1.023-5.8-1.659a6.883,6.883,0,0,1-2.435-11.662c2.079-1.863,5.036-2.285,7.807-2.626a52.3,52.3,0,0,1,11.433-.563,17.567,17.567,0,0,1,10.419,4.28,15.773,15.773,0,0,1,4.588,11.415,25.448,25.448,0,0,1-3.383,12.051,9.445,9.445,0,0,1-2.868,3.538,3.873,3.873,0,0,1-4.317.154c-1.066-.789-1.456-2.17-1.937-3.406s-1.3-2.551-2.615-2.742c-1.69-.245-2.979,1.473-4.591,2.035-2.255.786-4.76-.953-5.679-3.157s-.677-4.7-.42-7.071" transform="translate(-379.953 -217.109)" fill="#2f2e41"/><path d="M743,751.168a.67.67,0,0,1-.668.668H175.668a.668.668,0,1,1,0-1.336H742.332A.67.67,0,0,1,743,751.168Z" transform="translate(-175 -347.554)" fill="#3f3d56"/><circle cx="8.687" cy="8.687" r="8.687" transform="translate(252.252 192.452)" fill="#7df8bb"/><path d="M735.938,296.177c-3.628,4.835-19.558,10.493-24.136,12.043a.9.9,0,0,1-1.185-.89c.208-4.829,1.187-21.7,4.815-26.54a12.819,12.819,0,1,1,20.506,15.387Z" transform="translate(-352.699 -190.02)" fill="#f2f2f2"/><circle cx="6.522" cy="6.522" r="6.522" transform="translate(367.004 91.222)" fill="#fff"/><circle cx="2.924" cy="2.924" r="2.924" transform="translate(351.437 120.363)" fill="#f2f2f2"/><path d="M253.826,500.2c5.339,8.156,5.168,35.417,5,43.209a1.448,1.448,0,0,1-2,1.309c-7.207-2.968-32.258-13.72-37.6-21.876A20.671,20.671,0,1,1,253.826,500.2Z" transform="translate(-188.555 -261.409)" fill="#f2f2f2"/><circle cx="10.517" cy="10.517" r="10.517" transform="translate(36.664 238.377)" fill="#fff"/><circle cx="4.715" cy="4.715" r="4.715" transform="translate(70.669 287.268)" fill="#f2f2f2"/></g></g></svg>