<svg xmlns="http://www.w3.org/2000/svg" width="36" height="36" viewBox="0 0 36 36"><path d="M0,17.179v-1.5l12,10.2L.157,34.9A1.756,1.756,0,0,1,0,34.178V17.188Zm24.713-1.758a6.85,6.85,0,0,1-.3,1.813,4.443,4.443,0,0,1-.747,1.421,3.263,3.263,0,0,1-1.154.932,3.423,3.423,0,0,1-1.465.322,2.691,2.691,0,0,1-.642-.073,2.33,2.33,0,0,1-.576-.22,2.1,2.1,0,0,1-.684-.595,2.608,2.608,0,0,1-2.016.855,2.475,2.475,0,0,1-.759-.114,2.29,2.29,0,0,1-.66-.349h0a2.336,2.336,0,0,1-.515-.551,2.925,2.925,0,0,1-.359-.738h0a4.476,4.476,0,0,1-.166-1.837h0a6.686,6.686,0,0,1,.44-1.743,4.835,4.835,0,0,1,.853-1.38,3.624,3.624,0,0,1,1.206-.905,3.431,3.431,0,0,1,1.444-.293,4.428,4.428,0,0,1,1.106.132,3.41,3.41,0,0,1,.955.407l.491.319a.189.189,0,0,1,.084.173l-.419,4.379a.94.94,0,0,0,.087.65.535.535,0,0,0,.464.179.807.807,0,0,0,.485-.164,1.656,1.656,0,0,0,.437-.554,3.452,3.452,0,0,0,.329-.879,5.925,5.925,0,0,0,.142-1.122,6.877,6.877,0,0,0-.2-2.168,3.942,3.942,0,0,0-.832-1.579,3.544,3.544,0,0,0-1.407-.973,5.414,5.414,0,0,0-1.953-.328,4.971,4.971,0,0,0-1.341.176,4.452,4.452,0,0,0-1.178.524,4.576,4.576,0,0,0-1,.858,5.422,5.422,0,0,0-.766,1.151,6.9,6.9,0,0,0-.509,1.394,8.491,8.491,0,0,0-.223,1.588h0a7.347,7.347,0,0,0,.2,2.256,4.057,4.057,0,0,0,.835,1.632,3.541,3.541,0,0,0,1.435.99,5.7,5.7,0,0,0,2.04.337,6.145,6.145,0,0,0,.651-.035c.223-.023.455-.062.687-.108s.446-.1.639-.152a4.622,4.622,0,0,0,.512-.179.2.2,0,0,1,.148,0,.19.19,0,0,1,.105.1.157.157,0,0,1,0,.05l.3,1.23a.194.194,0,0,1-.084.2,3.211,3.211,0,0,1-.6.293,5.3,5.3,0,0,1-.744.223,7.33,7.33,0,0,1-.823.144,7.185,7.185,0,0,1-.829.047,7.634,7.634,0,0,1-3.668-.811,5.072,5.072,0,0,1-1.323-1.011,5.305,5.305,0,0,1-.931-1.4h0a6.882,6.882,0,0,1-.521-1.743,10.1,10.1,0,0,1-.118-2.089,9.3,9.3,0,0,1,.3-2.01,8.064,8.064,0,0,1,.711-1.793,6.783,6.783,0,0,1,1.085-1.471A6.48,6.48,0,0,1,14.8,9.71a6.819,6.819,0,0,1,1.7-.694,7.591,7.591,0,0,1,1.9-.237,7.032,7.032,0,0,1,3.466.811,5.262,5.262,0,0,1,1.29,1,5.354,5.354,0,0,1,.9,1.345,6.407,6.407,0,0,1,.53,1.64,8.153,8.153,0,0,1,.118,1.86Zm-7.746.879a4.356,4.356,0,0,0,0,.817,1.675,1.675,0,0,0,.145.557.714.714,0,0,0,.25.293.656.656,0,0,0,.359.094A.648.648,0,0,0,17.989,18a.926.926,0,0,0,.262-.2,1.653,1.653,0,0,0,.25-.343A2.925,2.925,0,0,0,18.71,17l.3-3.222H18.96a1.742,1.742,0,0,0-.223,0,1.544,1.544,0,0,0-.678.144,1.348,1.348,0,0,0-.5.422,2.73,2.73,0,0,0-.362.791,6.8,6.8,0,0,0-.22,1.172ZM.045,12.724c.256-.975,1.679-1.6,2.468-2.147V6.391A1.783,1.783,0,0,1,4.322,4.633h6.772L17.558.157a1,1,0,0,1,1.127.006l6.353,4.47h6.63a1.783,1.783,0,0,1,1.808,1.758v4.174c.85.586,2.514,1.383,2.514,2.487V13.1l-4.313,3.542V6.385H4.322v9.96ZM36,16.037V34.178a1.763,1.763,0,0,1-.428,1.151L23.61,26.187,36,16.037ZM32.685,35.986H2.489l11.287-8.6,3.36,2.856a1.179,1.179,0,0,0,1.552-.026l3.11-2.546,10.877,8.313Z" transform="translate(0 0.014)" fill="#f7f7f7"/></svg>