<svg xmlns="http://www.w3.org/2000/svg" width="889.917" height="893.818" viewBox="0 0 889.917 893.818"><g transform="matrix(0.883, 0.469, -0.469, 0.883, 311.812, -0.001)" opacity="0.33"><path d="M219.085,2c51.41,0,93.139,63.183,93.139,141.068s-41.729,141.068-93.139,141.068-93.139-63.129-93.139-141.068C126,65.183,167.675,2,219.085,2ZM337.491,343.483C446.545,343.7,460.108,415.1,552.043,537.3c45.831,88.911-13.673,144.96-115.671,120.962-46.269-23.3-78.81-31.511-111.46-30.43-56.55,1.946-70.825,38.807-136.618,36.213-50.753-1.351-73.614-22.376-78.044-54.428-4.758-34.051,8.532-55.562,24.72-83.722,62.895-109.612,127.922-196.145,202.521-182.416ZM39.206,211.224c-38.448,15.026-50.7,74.426-27.4,132.637S85.147,437.1,123.594,422.07s50.7-74.426,27.4-132.637S77.654,196.2,39.206,211.224Zm576.334,0c38.448,15.026,50.7,74.426,27.4,132.637s-73.4,93.235-111.788,78.209c-38.448-15.026-50.7-74.426-27.4-132.637S577.092,196.2,615.54,211.224ZM433.966,0C485.375,0,527.1,63.183,527.1,141.068s-41.729,141.068-93.139,141.068-93.139-63.129-93.139-141.068C340.882,63.183,382.556,0,433.966,0Z" transform="translate(0 0)" fill="#f98e8e" fill-rule="evenodd"/></g></svg>