<svg xmlns="http://www.w3.org/2000/svg" width="300" height="211.264" viewBox="0 0 300 211.264"><g transform="translate(0 0)"><path d="M465.192,467.886a4.344,4.344,0,0,0-4.431-4.974l-27.824-28.133-5.5,7.684L456.519,467.7a4.368,4.368,0,0,0,8.673.186Z" transform="translate(-347.223 -335.303)" fill="#ffb8b8"/><path d="M442.329,440.957l-7.1,7.094a1.825,1.825,0,0,1-2.562.01l-19.406-19.078a7.118,7.118,0,1,1,10.085-10.049l19,19.465A1.826,1.826,0,0,1,442.329,440.957Z" transform="translate(-337.54 -324.617)" fill="#f98e8e"/><circle cx="9.932" cy="9.932" r="9.932" transform="translate(69.95 61.654)" fill="#ffb8b8"/><path d="M114.543,457.058l2.515,4.272,17.677-7.667-3.712-6.306Z" transform="translate(-68.222 -266.447)" fill="#ffb8b8"/><path d="M337.329,655.411l4.953,8.414h0a6.222,6.222,0,0,1-2.206,8.518l-.174.1-8.109-13.777Z" transform="translate(-290.254 -466.712)" fill="#2f2e41"/><path d="M186.6,481.242h4.958l2.358-19.123H186.6Z" transform="translate(-111.138 -275.24)" fill="#ffb8b8"/><path d="M412.55,694.2h9.764a6.222,6.222,0,0,1,6.222,6.222v.2H412.55Z" transform="translate(-338.354 -489.811)" fill="#2f2e41"/><path d="M356.665,584.426a1.817,1.817,0,0,1-1.466-.741l-4.781-6.494a1.82,1.82,0,0,1,.455-2.592l21.277-14.211L359.312,526.63l27.454,2.266.925,29.009a14.577,14.577,0,0,1-7.3,13.112l-22.819,13.165A1.813,1.813,0,0,1,356.665,584.426Z" transform="translate(-301.137 -390.009)" fill="#2f2e41"/><path d="M411.892,643.425a1.82,1.82,0,0,1-1.815-1.755l-1.006-28.26,12.459-.656-.992,28.463a1.815,1.815,0,0,1-1.7,1.752l-6.823.452Q411.953,643.425,411.892,643.425Z" transform="translate(-336.282 -441.304)" fill="#2f2e41"/><path d="M400.349,457.172c-3.17,0-14.241-3.565-18.085-4.836-.575.46-3.734,2.822-7.421,2.39a8.647,8.647,0,0,1-5.953-3.828c-3.7-5.02.87-26.549,5.354-43.726a13.858,13.858,0,0,1,16.39-10.061h0a13.98,13.98,0,0,1,10.55,10.263c.844,3.437.118,7.479-.412,10.431a14.177,14.177,0,0,0-.379,3.023c.26,2.082,1.706,34.734.776,36.129C401.068,457.1,400.782,457.172,400.349,457.172Z" transform="translate(-311.542 -312.673)" fill="#f98e8e"/><path d="M407.128,478.182a4.344,4.344,0,0,0,.381-6.651l.2-39.568-9.319,1.552,2.737,38.406a4.368,4.368,0,0,0,6,6.261Z" transform="translate(-329.918 -333.626)" fill="#ffb8b8"/><path d="M407.507,441.592H397.469a1.825,1.825,0,0,1-1.82-1.8l-.246-27.213a7.118,7.118,0,1,1,14.237.017l-.313,27.2a1.826,1.826,0,0,1-1.82,1.8Z" transform="translate(-328.141 -317.844)" fill="#f98e8e"/><path d="M405.965,355.714a10.077,10.077,0,0,1-9.626-8.065,11.594,11.594,0,0,1,.372-5.263,14.135,14.135,0,0,1,19.385-8.878,5.663,5.663,0,0,1,2.972,2.555,2.638,2.638,0,0,1-1.01,3.456c-.8.357-1.8.182-2.5.694-1.015.736-.754,2.3-.3,3.47s.966,2.583.206,3.58c-.708.929-2.123.9-3.237.551a8.7,8.7,0,0,0-3.376-.816,3.946,3.946,0,0,0-3.138,3.548,11.541,11.541,0,0,0,.829,5Z" transform="translate(-328.611 -274.237)" fill="#2f2e41"/><path d="M727.7,280.405c0-27.161,22.019-91.614,49.18-91.614s49.18,64.453,49.18,91.614a49.18,49.18,0,1,1-98.36,0Z" transform="translate(-526.056 -188.791)" fill="#f98e8e"/><path d="M848.713,460.291a.4.4,0,0,1-.4-.4V290.329a.4.4,0,1,1,.809,0V459.886A.4.4,0,0,1,848.713,460.291Z" transform="translate(-597.894 -249.027)" fill="#3f3d56"/><path d="M820.044,342.011a.4.4,0,0,1-.286-.118l-19.466-19.465a.4.4,0,0,1,.572-.572L820.33,341.32a.4.4,0,0,1-.286.69Z" transform="translate(-569.225 -267.974)" fill="#3f3d56"/><path d="M848.713,406a.4.4,0,0,1-.286-.69l32.6-32.6a.4.4,0,1,1,.572.572L849,405.88a.4.4,0,0,1-.286.118Z" transform="translate(-597.894 -298.263)" fill="#3f3d56"/><path d="M511.624,513.915c6.452-1.459,13.762,3.588,13.988,10.364a6.568,6.568,0,0,1-1.961,5.2,4.826,4.826,0,0,1-4.577,1.087c-3.012-1.007-3.172-5.2-1.557-7.445,2.188-3.035,6.521-3.553,9.96-3.192a23.6,23.6,0,0,1,11.553,4.811c6.713,5.058,10.987,12.81,14.446,20.3a102.355,102.355,0,0,1,7.667,24.094q.293,1.567.536,3.142a.611.611,0,0,0,.752.413.622.622,0,0,0,.413-.752,103.7,103.7,0,0,0-7.778-26.311c-3.622-8.117-8.189-16.537-15.454-21.954a24.641,24.641,0,0,0-12.424-4.981c-3.81-.338-8.322.468-10.691,3.781-1.869,2.614-1.679,6.959,1.213,8.78a5.52,5.52,0,0,0,5.262.106,6.738,6.738,0,0,0,3.553-4.4c1.027-3.763-.533-7.833-3.206-10.523a13.474,13.474,0,0,0-9.484-3.988,11.943,11.943,0,0,0-2.55.3c-.762.172-.421,1.337.339,1.165Z" transform="translate(-396.905 -381.561)" fill="#ccc"/><path d="M583.793,685.994l-4.01-6.846,4.944-2.9,4.009,6.845h0a2.865,2.865,0,0,1-4.944,2.9Z" transform="translate(-437.959 -479.125)" fill="#f98e8e"/><circle cx="3.526" cy="3.526" r="3.526" transform="translate(129.051 185.588)" fill="#f98e8e"/><path d="M622.155,685.994l-4.009-6.846,4.944-2.9,4.01,6.845a2.865,2.865,0,0,1-4.944,2.9Z" transform="translate(-460.807 -479.125)" fill="#f98e8e"/><path d="M558.572,662.966a7.5,7.5,0,0,1,7.493-7.493h23.718a3.171,3.171,0,0,1,3.167,3.167v2.7a9.13,9.13,0,0,1-9.119,9.119H566.065A7.5,7.5,0,0,1,558.572,662.966Z" transform="translate(-425.325 -466.749)" fill="#3f3d56"/><path d="M572.1,690.839v-7.933h5.73v7.933a2.865,2.865,0,1,1-5.73,0Z" transform="translate(-433.381 -483.088)" fill="#3f3d56"/><path d="M613.21,690.839v-7.933h5.73v7.933a2.865,2.865,0,0,1-5.73,0Z" transform="translate(-457.868 -483.088)" fill="#3f3d56"/><path d="M662.319,622.966a3.526,3.526,0,0,1,5.5,4.416l-5.8,7.216-5.5-4.416Z" transform="translate(-483.666 -446.602)" fill="#f98e8e"/><path d="M635.509,647.811l4.643-5.781a6.8,6.8,0,0,1,9.547-1.042l1.451,1.165a8.106,8.106,0,0,1,1.243,11.383l-3.825,4.763a2.545,2.545,0,0,1-3.574.39l-9.093-7.3A2.545,2.545,0,0,1,635.509,647.811Z" transform="translate(-470.816 -457.231)" fill="#3f3d56"/><path d="M663.009,621.448a2.424,2.424,0,1,1,3.78,3.036L660.3,632.56l-3.78-3.036Z" transform="translate(-483.665 -445.943)" fill="#3f3d56"/><path d="M643.082,656.162l9.965,8a3.526,3.526,0,1,1-4.416,5.5l-9.966-8Z" transform="translate(-473.03 -467.159)" fill="#3f3d56"/><ellipse cx="1.488" cy="0.826" rx="1.488" ry="0.826" transform="translate(178.765 202.35) rotate(-51.23)" fill="#f98e8e"/><path d="M508.919,709.833H229.481a.4.4,0,1,1,0-.809H508.919a.4.4,0,1,1,0,.809Z" transform="translate(-229.077 -498.644)" fill="#ccc"/></g></svg>