<svg xmlns="http://www.w3.org/2000/svg" width="300" height="272.98" viewBox="0 0 300 272.98"><g transform="translate(-0.002 0)"><path d="M453.787,264.279c-4.174,6.893-10.1,19.144-16.994,29.211-5.8,8.467-12.291,15.39-19.015,16.275-29.482,3.886-71.9,4.93-101.382,8.816-35.148,4.632-69.849-.417-105.112-4.069-8.89-.922-10.155-15.384-17.11-21.022a10.185,10.185,0,0,0-1.814-1.187c-8.612-4.384-16.062-11.847-18.476-21.206-3.1-12,2.4-24.45,8.711-35.111s13.78-21.287,15.116-33.6c1.645-15.14-6.337-29.594-15.207-41.97s-19.141-24.359-23.22-39.027c-7.12-25.6,9.352-55.37,34.819-62.935,0,0,112.389.712,171.116-8.555,14.122-2.228,29.265-4.716,42.184,1.421,14.739,7,22.647,23.833,24.067,40.092s-2.435,32.442-5.174,48.531-4.3,33.073,1.455,48.348c4.967,13.186,14.9,23.813,22.043,35.962S461.09,252.225,453.787,264.279Z" transform="translate(-157.615 -47.459)" fill="#2f2e41"/><path d="M508.047,773.062c-5.8,8.467-12.291,15.39-19.015,16.275-29.482,3.886-71.9,4.93-101.382,8.816-35.148,4.632-69.849-.417-105.112-4.069-8.89-.922-10.155-15.384-17.11-21.022Z" transform="translate(-228.871 -527.031)" fill="#3f3d56"/><path d="M361.922,119.14l-6.607,178.865v0q.334.462.677.923c.124.17.251.337.38.507.19.26.385.516.584.773,0,0,0,.006.006.01l.008.01v0a118.139,118.139,0,0,0,19.968,20.591v.071l.077-.01c.091.077.182.148.273.221.658.526,1.321,1.045,1.99,1.552q.491.375.986.741v0s0,0,.005,0h.005l.005.006.017.01.022.016c.253.189.5.375.76.561.077.061.154.115.231.17.135.1.273.2.41.3s.273.2.41.292c.548.391,1.1.776,1.655,1.154.138.1.278.189.418.285s.278.186.418.279v.01l.017,0,.005,0,.006.006h0c.385.257.768.513,1.156.763l0,0c.311.2.622.4.936.6.743.471,1.492.936,2.244,1.388.523.317,1.049.625,1.578.93.319.186.641.369.964.551.267.151.537.3.8.449.074.042.146.083.22.122.121.067.245.135.366.2h93.33c.132-.071.264-.141.4-.215a.257.257,0,0,0,.072-.038s0,0,.005,0c.19-.1.38-.208.57-.314l.005,0q1.458-.813,2.891-1.677,3.25-1.953,6.384-4.159,1.681-1.183,3.326-2.437.512-.39,1.024-.789c.308-.24.614-.481.92-.725q1.619-1.289,3.2-2.645,1.631-1.4,3.216-2.87,2.065-1.914,4.047-3.937,3.7-3.761,7.089-7.9c.072-.087.143-.173.215-.263q.83-1.015,1.638-2.055L515.74,119.14a8.855,8.855,0,0,0-.6-3.238c-.837-2.116-2.47-3.556-4.344-3.556H366.864c-1.9,0-3.549,1.475-4.375,3.636-.028.071-.052.141-.077.212A8.9,8.9,0,0,0,361.922,119.14Z" transform="translate(-288.279 -90.345)" fill="#3f3d56"/><ellipse cx="7.433" cy="8.657" rx="7.433" ry="8.657" transform="translate(201.799 25.355)" fill="#fff"/><path d="M539.829,206.609a190.269,190.269,0,0,0,40.536,5.851,50.761,50.761,0,0,0,6.211-.042c4.543-.382,8.435-1.81,12.769-2.59,2.084-.374,4.4-.648,6.5-1.052q-.727-.9-1.48-1.782c-4.523.382-9.117,1.633-13.694,2.214-7.781.99-16.5-.115-22.4-2.838-2.862-1.321-5.054-2.971-7.906-4.3a3.684,3.684,0,0,0-1.241-.38,4.318,4.318,0,0,0-2.341.607c-4.785,2.415-11.731,4.378-18.179,3.3C538.126,205.973,539.039,206.4,539.829,206.609Z" transform="translate(-409.334 -149.395)" fill="#fff"/><path d="M549.156,303.707c-.081-.015-.161-.026-.242-.04a6.579,6.579,0,0,0,.954-.719Z" transform="translate(-416.235 -216.319)" fill="#fff"/><path d="M393.8,310.816q5.53.442,11.117.658a70.035,70.035,0,0,0,8.5-.058c6.219-.526,11.546-2.478,17.479-3.546,5.437-.977,12.045-1.448,15.5-3.618-8.923-1.544-18.168,1.6-27.369,2.77a65.352,65.352,0,0,1-22.3-1.1Q395.194,308.325,393.8,310.816Z" transform="translate(-313.714 -216.905)" fill="#fff"/><path d="M592.956,486.93v-2.637a3.95,3.95,0,0,1,3.721-3.941v-10.3h.876v10.287h3.94v6.566h18.6V562.42h-41.15V501.734a14.828,14.828,0,0,1,14.008-14.8Z" transform="translate(-436.085 -326.763)" fill="#2f2e41"/><rect width="5.472" height="4.378" transform="translate(177.228 175.246) rotate(180)" fill="#fff"/><rect width="5.472" height="4.378" transform="translate(168.254 175.246) rotate(180)" fill="#fff"/><rect width="5.472" height="4.378" transform="translate(159.279 175.246) rotate(180)" fill="#fff"/><rect width="5.472" height="4.378" transform="translate(177.228 186.409) rotate(180)" fill="#fff"/><rect width="5.472" height="4.378" transform="translate(168.254 186.409) rotate(180)" fill="#fff"/><rect width="5.472" height="4.378" transform="translate(159.279 186.409) rotate(180)" fill="#fff"/><rect width="5.472" height="4.378" transform="translate(177.228 197.572) rotate(180)" fill="#fff"/><rect width="5.472" height="4.378" transform="translate(168.254 197.572) rotate(180)" fill="#fff"/><rect width="5.472" height="4.378" transform="translate(159.279 197.572) rotate(180)" fill="#fff"/><rect width="5.472" height="4.378" transform="translate(177.228 208.735) rotate(180)" fill="#fff"/><rect width="5.472" height="4.378" transform="translate(168.254 208.735) rotate(180)" fill="#fff"/><rect width="5.472" height="4.378" transform="translate(159.279 208.735) rotate(180)" fill="#fff"/><rect width="5.472" height="4.378" transform="translate(177.228 219.898) rotate(180)" fill="#fff"/><rect width="5.472" height="4.378" transform="translate(168.254 219.898) rotate(180)" fill="#fff"/><rect width="5.472" height="4.378" transform="translate(159.279 219.898) rotate(180)" fill="#fff"/><rect width="5.472" height="4.378" transform="translate(177.228 231.061) rotate(180)" fill="#fff"/><rect width="5.472" height="4.378" transform="translate(168.254 231.061) rotate(180)" fill="#fff"/><rect width="5.472" height="4.378" transform="translate(159.279 231.061) rotate(180)" fill="#fff"/><path d="M696.959,381.547v97.459h25.419q1.681-1.016,3.326-2.092.512-.334,1.024-.677c.308-.206.614-.413.92-.622q1.619-1.107,3.2-2.271,1.631-1.2,3.216-2.464,2.065-1.644,4.047-3.381V366.719h-7.331V355.01h-7.442V343.846h-.875V355.01H717a3.954,3.954,0,0,0-3.953,3.953v7.756h-1.258a14.834,14.834,0,0,0-14.22,10.61,15.325,15.325,0,0,0-.386,1.641A15,15,0,0,0,696.959,381.547Z" transform="translate(-514.082 -243.35)" fill="#2f2e41"/><rect width="5.472" height="4.378" transform="translate(210.565 118.446) rotate(180)" fill="#fff"/><path d="M361.921,119.138,355.314,298v0q.334.463.677.925c.055.077.113.151.171.229s.138.184.209.278c.19.259.385.515.584.771l6.607-181.071c0-.085,0-.168.005-.253a4.524,4.524,0,0,1,2.315-4.077,2.445,2.445,0,0,1,.98-.206H510.8c1.41,0,2.615,1.22,3.089,2.932a.084.084,0,0,1,.005.025,5.957,5.957,0,0,1,.209,1.58l5.506,188.345c.226-.237.449-.474.672-.713.325-.347.647-.7.966-1.052l-5.506-186.58a8.855,8.855,0,0,0-.6-3.238c-.837-2.117-2.469-3.557-4.344-3.557H366.863c-1.9,0-3.549,1.476-4.375,3.637-.028.072-.052.14-.077.212A8.9,8.9,0,0,0,361.921,119.138ZM388.99,329.571c.523.273,1.049.537,1.578.8.319.16.642.317.964.474.267.129.537.259.8.385.074.036.146.072.22.1.121.058.245.116.366.171h93.33c.132-.061.264-.121.4-.184a.277.277,0,0,0,.072-.033s0,0,.005,0c.19-.088.38-.179.57-.27l.006,0q1.458-.7,2.891-1.44Z" transform="translate(-288.279 -90.343)" fill="#2f2e41"/><rect width="152.178" height="1.911" transform="translate(74.464 45.046)" fill="#2f2e41"/><rect width="155.825" height="1.911" transform="translate(72.368 68.722)" fill="#2f2e41"/><path d="M587.827,150.355h1.641l-5.506-82.941h-1.641Z" transform="translate(-384.871 -44.556)" fill="#2f2e41"/><path d="M281.377,150.905h1.641l6.607-83.491h-1.641Z" transform="translate(-185.969 -44.556)" fill="#2f2e41"/><rect width="156.376" height="5.469" transform="translate(227.918 109.031) rotate(180)" fill="#2f2e41"/><path d="M0,0H7.656A3.008,3.008,0,0,1,4.648,3.008H3.008A3.008,3.008,0,0,1,0,0H0Z" transform="translate(152.456 103.553) rotate(180)" fill="#2f2e41"/><path d="M357.758,305.457c.074.088.151.173.229.262.19.223.385.443.584.664,0,0,0,.005.005.008l.008.008v0a110.614,110.614,0,0,0,19.968,17.68.757.757,0,0,0,.077.052c.091.066.182.127.273.19.658.451,1.321.9,1.99,1.333.328.215.655.427.986.636v0s0,0,.005,0h.005l.005.005.017.008.022.014c.253.162.5.322.76.482.077.052.154.1.231.146.135.085.273.171.41.256s.273.168.41.25c.173.1.347.212.52.314l-.011-.909-.017-1.209-.08-5.556-.275-4.438L382.25,289.4l-.259-4.157-.058-.936-.735-11.819-.251-4.058-.57-9.14-.256-4.157,3.479-4.356-.011-.157-.022-.374-.014-.228v0l-.292-4.664-.011-.2-.207-3.3v-.006l-.295-4.779-.187-3-.209-3.37-.168-2.7-.039-.619-.1-1.641-.006-.066-4.363-9.875-.165-2.662v0l-.173-2.792-.118-1.911-.245-3.9-.259-4.152-.1-1.641-.361-5.826v0l-.2-3.243-.2-3.249-.3-4.752-.2-3.166-.118-1.911-.859-13.854-.039-.6-.083-1.31-.278-4.482,5.971-10.247-.438-7.037-.118-1.911-1.255-20.186-.039-.6-.069-1.129c-5.391-.592-9.787-.157-12.851,2.629l-.085,19.288-.008,1.911-1.743,21.119,0,.647-.008,1.911-.708,36-.008,1.641-1.211,25.7-.008,1.641-.628,17.774-.025,5.468-2.971,49.955Z" transform="translate(-289.894 -92.093)" fill="#ccc"/><path d="M425.986,736.294c.328.215.655.427.986.636v0s0,0,.005,0h.006l.005.006.017.008.022.014c.253.162.5.322.76.482.077.052.154.1.231.146.135.085.273.171.41.256s.273.168.41.25c.173.1.347.212.52.314q.566.343,1.134.677c.138.083.278.162.418.245l.418.24v.008l.017,0,.006,0,.006.005h0c.385.22.768.44,1.156.655l0,0c.311.173.622.344.936.515q1.115.607,2.244,1.192c.523.273,1.049.537,1.578.8.319.16.641.317.964.474.267.129.537.259.8.385.074.036.146.072.22.1.121.058.245.116.366.171l.3.14c.242.116.487.226.73.336.273.124.542.245.815.366,1.024.457,2.059.9,3.1,1.322a107.962,107.962,0,0,0,11.351,3.926c.179.052.361.1.542.154q2.474.694,4.983,1.269,4.382,1.008,8.843,1.655l.019,0c.355.052.713.1,1.068.151.03.005.063.011.1.014,0,0,.005,0,.011,0h0c.394.052.787.1,1.184.154.028.005.055.008.083.011.369.044.741.088,1.112.129.4.044.8.085,1.2.127h0c.611.061,1.222.118,1.834.168l.033,0c.242.022.485.039.727.058h0q4.274.339,8.628.336,4.728,0,9.361-.394l.033,0q.987-.083,1.971-.182c.173-.017.344-.036.518-.052.033,0,.066-.005.1-.011l.16-.017c.028,0,.058-.005.085-.011.229-.025.457-.05.688-.077.256-.03.515-.061.771-.094s.515-.063.771-.1c.055-.005.113-.011.168-.022.187-.022.374-.047.559-.074.091-.011.179-.025.267-.038.179-.025.355-.05.534-.077l.019,0a108.8,108.8,0,0,0,16.6-3.742h0c.295-.091.589-.184.884-.278q.132-.037.264-.083,1.148-.368,2.282-.76,1.565-.537,3.108-1.123l.84-.322c.559-.22,1.115-.44,1.668-.666q1.417-.578,2.814-1.192h0v0c.735-.325,1.467-.655,2.194-1,.132-.061.264-.121.4-.184a.277.277,0,0,0,.072-.033s0,0,.005,0c.19-.088.38-.179.57-.27l.005,0q1.458-.7,2.891-1.44,1.776-.917,3.521-1.9,1.445-.814,2.863-1.671,1.681-1.016,3.326-2.092Z" transform="translate(-334.988 -502.73)" fill="#2f2e41"/><ellipse cx="0.551" cy="0.641" rx="0.551" ry="0.641" transform="translate(190.237 35.616)" fill="#fff"/><ellipse cx="0.551" cy="0.641" rx="0.551" ry="0.641" transform="translate(156.781 36.411)" fill="#fff"/><ellipse cx="0.551" cy="0.641" rx="0.551" ry="0.641" transform="translate(136.133 37.052)" fill="#fff"/><circle cx="0.551" cy="0.551" r="0.551" transform="translate(107.093 118.359)" fill="#fff"/><circle cx="0.551" cy="0.551" r="0.551" transform="translate(140.538 87.382)" fill="#fff"/><circle cx="0.551" cy="0.551" r="0.551" transform="translate(168.212 115.606)" fill="#fff"/><circle cx="0.551" cy="0.551" r="0.551" transform="translate(172.892 86.699)" fill="#fff"/><circle cx="0.551" cy="0.551" r="0.551" transform="translate(209.783 80.917)" fill="#fff"/><rect width="30.274" height="0.551" transform="translate(83.656 224.703) rotate(-88.437)" fill="#b3b3b3"/><rect width="55.598" height="0.551" transform="translate(75.122 131.378) rotate(-89.149)" fill="#b3b3b3"/><path d="M434.439,738.11l1.3-2.362-.639-.3-.509-.242-2.222-1.049-1.335-.63-.551-.262-.438-.206-.727,1.1-.366.553-.055.083v0a.189.189,0,0,1,.033.016l.022.014c.253.162.5.322.76.482.077.052.154.1.231.146.135.085.273.171.41.256s.273.168.41.25c.548.336,1.1.666,1.655.991.138.083.278.162.418.245s.278.16.418.24v.008l.017,0,.005,0,.005.005h0C433.668,737.675,434.051,737.895,434.439,738.11Z" transform="translate(-336.91 -500.591)" fill="#2f2e41"/><path d="M374.7,179.941a1.929,1.929,0,0,1,1.927-1.927h17.344a1.927,1.927,0,0,1,0,3.854H376.622A1.929,1.929,0,0,1,374.7,179.941Z" transform="translate(-301.088 -133.746)" fill="#2f2e41"/><path d="M354.4,234.342a1.929,1.929,0,0,1,1.927-1.927h17.344a1.927,1.927,0,1,1,0,3.854H356.324A1.929,1.929,0,0,1,354.4,234.342Z" transform="translate(-287.673 -169.701)" fill="#2f2e41"/><path d="M485.741,634.905v-1.051a1.574,1.574,0,0,1,1.483-1.57v-4.1h.349v4.1h1.57V634.9h7.413v30.087h-16.4V640.8a5.908,5.908,0,0,1,5.581-5.9Z" transform="translate(-370.793 -431.275)" fill="#2f2e41"/><rect width="2.18" height="1.744" transform="translate(123.058 209.639) rotate(180)" fill="#fff"/><rect width="2.18" height="1.744" transform="translate(119.483 209.639) rotate(180)" fill="#fff"/><rect width="2.18" height="1.744" transform="translate(115.907 209.639) rotate(180)" fill="#fff"/><rect width="2.18" height="1.744" transform="translate(123.058 214.086) rotate(180)" fill="#fff"/><rect width="2.18" height="1.744" transform="translate(119.483 214.086) rotate(180)" fill="#fff"/><rect width="2.18" height="1.744" transform="translate(115.907 214.086) rotate(180)" fill="#fff"/><rect width="2.18" height="1.744" transform="translate(123.058 218.534) rotate(180)" fill="#fff"/><rect width="2.18" height="1.744" transform="translate(119.483 218.534) rotate(180)" fill="#fff"/><rect width="2.18" height="1.744" transform="translate(115.907 218.534) rotate(180)" fill="#fff"/><rect width="2.18" height="1.744" transform="translate(123.058 222.981) rotate(180)" fill="#fff"/><rect width="2.18" height="1.744" transform="translate(119.483 222.981) rotate(180)" fill="#fff"/><rect width="2.18" height="1.744" transform="translate(115.907 222.981) rotate(180)" fill="#fff"/><rect width="2.18" height="1.744" transform="translate(123.058 227.429) rotate(180)" fill="#fff"/><rect width="2.18" height="1.744" transform="translate(119.483 227.429) rotate(180)" fill="#fff"/><rect width="2.18" height="1.744" transform="translate(115.907 227.429) rotate(180)" fill="#fff"/><rect width="2.18" height="1.744" transform="translate(123.058 231.877) rotate(180)" fill="#fff"/><rect width="2.18" height="1.744" transform="translate(119.483 231.877) rotate(180)" fill="#fff"/><rect width="2.18" height="1.744" transform="translate(115.907 231.877) rotate(180)" fill="#fff"/><path d="M533.085,587.012h.5v-3.091a1.575,1.575,0,0,1,1.575-1.575h2.175V577.9h.349v4.448h2.965v4.666h2.921V631.75h-16.4V592.92a5.908,5.908,0,0,1,5.908-5.908Z" transform="translate(-401.868 -398.042)" fill="#2f2e41"/><rect width="7.064" height="0.523" transform="translate(137.038 193.025) rotate(180)" fill="#fff"/><rect width="7.064" height="0.523" transform="translate(137.038 196.252) rotate(180)" fill="#fff"/><rect width="7.064" height="0.523" transform="translate(137.038 199.479) rotate(180)" fill="#fff"/><rect width="7.064" height="0.523" transform="translate(137.038 202.705) rotate(180)" fill="#fff"/><rect width="7.064" height="0.523" transform="translate(137.038 205.932) rotate(180)" fill="#fff"/><rect width="7.064" height="0.523" transform="translate(137.038 209.159) rotate(180)" fill="#fff"/><rect width="7.064" height="0.523" transform="translate(137.038 212.386) rotate(180)" fill="#fff"/><rect width="7.064" height="0.523" transform="translate(137.038 215.612) rotate(180)" fill="#fff"/><rect width="7.064" height="0.523" transform="translate(137.038 218.839) rotate(180)" fill="#fff"/><rect width="7.064" height="0.523" transform="translate(137.038 222.066) rotate(180)" fill="#fff"/><rect width="7.064" height="0.523" transform="translate(137.038 225.293) rotate(180)" fill="#fff"/><rect width="7.064" height="0.523" transform="translate(137.038 228.519) rotate(180)" fill="#fff"/><rect width="2.18" height="1.744" transform="translate(136.341 187.008) rotate(180)" fill="#fff"/><path d="M343.749,452.355l.25,13.121H328.137V453.163Z" transform="translate(-216.873 -298.974)" fill="#ffb6b6"/><circle cx="8.65" cy="8.65" r="8.65" transform="translate(108.683 108.619)" fill="#ffb6b6"/><path d="M562.093,359.828a3.237,3.237,0,0,0-3.149,3.837L546.432,383.9l4.706,2.284,11.822-19.949a3.255,3.255,0,0,0-.867-6.406Z" transform="translate(-414.594 -253.913)" fill="#ffb6b6"/><path d="M521,415.547l-2.095,3.991-1.119,2.134-.731,1.391a4.7,4.7,0,0,0,7.571,5.563l5.98-6.07a1.695,1.695,0,0,0-.213-2.553l5.216-9.735-5.8-3.649-6.316,8.343a1.7,1.7,0,0,0-2.5.585Z" transform="translate(-394.58 -284.838)" fill="#a3d2ee"/><path d="M471.777,518.564a3.237,3.237,0,0,1-.6-4.928l.312-23.788,5.2.6-.741,23.177a3.255,3.255,0,0,1-4.171,4.938Z" transform="translate(-364.28 -339.847)" fill="#ffb6b6"/><path d="M302.488,726.719h3.542l1.686-13.661h-5.227Z" transform="translate(-199.922 -471.281)" fill="#ffb6b6"/><path d="M455.3,792.994l5.658-.338v2.424l5.379,3.715a1.514,1.514,0,0,1-.86,2.76h-6.736l-1.161-2.4-.453,2.4h-2.54Z" transform="translate(-353.894 -539.981)" fill="#2f2e41"/><path d="M386.2,703.4l3.306-1.272-5.578-21.739-5.677,2.349Z" transform="translate(-249.997 -449.692)" fill="#ffb6b6"/><path d="M553.561,785.689l5.16-2.347.87,2.263,6.355,1.536a1.514,1.514,0,0,1,.188,2.885l-6.287,2.419-1.945-1.821.438,2.4-2.371.912Z" transform="translate(-419.306 -533.826)" fill="#2f2e41"/><path d="M453.773,612.915h.039l.681-22.212a5.808,5.808,0,0,1,.076-5.489l.1-.177-.253-1.172a7.466,7.466,0,0,1,.427-4.493l.635-20.719c-2.27-14.712,8.549-24.307,8.549-24.307H480.23L483.71,546.3c2.3,22.41,7.308,32.041,3.658,53.2l.1.05a.841.841,0,0,1,.343,1.109c-.169.489-.6.784-.954.661l-4.842,5.832c-.358-.124-3.212-2.342-3.043-2.83s.6-.784.954-.661l.582.294-9.141-41.969L466.4,586.551l-5.072,26.611a.933.933,0,0,1-.629,1.625h-6.926a.936.936,0,1,1,0-1.872Z" transform="translate(-352.734 -369.257)" fill="#a3d2ee"/><path d="M467.57,363.5a3.841,3.841,0,0,0,.245.323,4.8,4.8,0,0,0,1.594,1.2l.172-.046a2.236,2.236,0,0,0,.956,1.628,1.581,1.581,0,0,0,.521.2,12.562,12.562,0,0,0-.105,6.91,6.658,6.658,0,0,0,.373.917,6.551,6.551,0,0,0,.8,1.258c.054.067.11.132.167.2a6.58,6.58,0,0,0,.742.72,7.845,7.845,0,0,0,1.88,1.153,11.923,11.923,0,0,0,3.753.909h0a14.816,14.816,0,0,0,2.931-.022l.169-.022,0-.038.006-.131c0-.032,0-.065.006-.1.011-.213.032-.427.061-.637s.059-.413.1-.615c.129.309.3.694.506,1.129.221.471.479,1,.753,1.551.145.29.295.586.446.884.374.736.757,1.473,1.105,2.134.25.471.481.9.68,1.265.3.554.526.946.615,1.074l.261.374.177-.774.191-.835.276-1.212.116-.508.043-.2a8.28,8.28,0,0,0,.164-1.491c.006-.194,0-.389-.008-.583a8.537,8.537,0,0,0-.389-2.157,8.283,8.283,0,0,0-.459-1.153c-.062-.134-.129-.268-.2-.4-.1-.175-.2-.349-.3-.519l-.027-.043a5.986,5.986,0,0,1-.591-1.215,5.769,5.769,0,0,1-.242-.917,5.967,5.967,0,0,1,.65-3.936,5.333,5.333,0,0,1,.975-1.282,4.58,4.58,0,0,1,.537-.446,4.395,4.395,0,0,1,.938-.518,4.28,4.28,0,0,1,1.617-.315h.2v-.2a5.21,5.21,0,0,0-1.07-3.194c-.084-.111-.175-.22-.269-.323a4.534,4.534,0,0,0-3.026-1.553,2.234,2.234,0,0,0-1.25-1.577,5.82,5.82,0,0,0-1.4-.554,9.611,9.611,0,0,0-4.64,0,8.055,8.055,0,0,0-1.789.674,2.472,2.472,0,0,0-.175-.674,2.544,2.544,0,0,0-.787-1.035,2.056,2.056,0,0,0-.561-.309,2.434,2.434,0,0,0-1.33-.076c-2.3-1.778-4.532-1.117-5.761.385a4.24,4.24,0,0,0-.632,1.035A3.791,3.791,0,0,0,467.57,363.5Z" transform="translate(-362.056 -252.257)" fill="#2f2e41"/><path d="M475.357,454.944l-.245-4.5-.132-2.406-.084-1.569a4.7,4.7,0,0,0-9.351-.9l-2.028,8.276a1.695,1.695,0,0,0,1.49,2.084l.505,11.033,6.849.165,1.153-10.4a1.7,1.7,0,0,0,1.844-1.781Z" transform="translate(-359.762 -307.783)" fill="#a3d2ee"/><path d="M495.147,439.748c-.012-.123-.029-.253-.053-.376a11.169,11.169,0,0,0-4.271-7.284,11.419,11.419,0,0,0-2.568-1.5v-2.53h-8.477v2.429a11.675,11.675,0,0,0-4.64,3.336v.006c-.094.112-.182.229-.27.347-.159.2-.305.411-.446.623a11.332,11.332,0,0,0-1.88,6.5v.006a11.194,11.194,0,0,0,.37,2.632,42.169,42.169,0,0,1,.922,4.564c.153.975.27,1.933.358,2.867.053.47.094.934.129,1.386v.006c.176,2.238.235,4.247.288,5.8.023.846.047,1.551.088,2.091a.644.644,0,0,0,.012.106,1.781,1.781,0,0,0,.446.975.847.847,0,0,0,.1.106,2.1,2.1,0,0,0,.916.482,1.807,1.807,0,0,0,.358.035h.035a20.417,20.417,0,0,1,12.747-1.489l2.836.585a.822.822,0,0,0,.99-.806c-.005-1.843-.371-5.654-.131-5.85a1.9,1.9,0,0,0,.558-.8v-.006c.012-.047.029-.094.041-.147a38.4,38.4,0,0,0,1.68-7.384c.041-.482.076-.981.094-1.516v-.006a34.638,34.638,0,0,0-.235-5.187Z" transform="translate(-365.756 -299.011)" fill="#a3d2ee"/><path d="M762.4,324.81c2.478,2.478,2.285,3.51,3.229,2.94q1.681-1.016,3.326-2.092.512-.335,1.024-.677c.308-.206.614-.413.92-.622q1.619-1.107,3.2-2.271,1.631-1.2,3.216-2.464,2.065-1.644,4.047-3.381,3.7-3.229,7.089-6.784c.072-.074.143-.149.215-.226.226-.237.449-.474.672-.713l-1.12-4.047-1.376-58.985-.083-17.774-.005-1.641-1.222-25.7-.008-1.641-.71-34.653-.005-1.349-.011-1.911,3.838-3.73-5.589-18.036-.008-1.911-.085-17.832-.006-1.456c-2.915-2.654-7.042-3.174-12.089-2.706-.251.025-.507.05-.763.077l-.069,1.129-.127,2.012v0l-.991,15.957v.005l-.176,2.811-.118,1.911-.311,5,4.466,16.766-.118,1.911-.862,13.854-.118,1.911-.245,3.942-1.013,16.3-.1,1.641-.209,3.384-.262,4.185-.03.487-.118,1.911-3.054,5.49-.094,1.531-.432,6.974-.058.931-.025.383-.028.429-.044.716-.058.925-.207,3.32-.085,1.393-.083,1.313-.058.95-.1,1.531-.074,1.184,2.52,3.122-.083,1.313-.14,2.282-.085,1.366-.011.165-.184,2.973-.083,1.313-.061,1.016-.162,2.6-.1,1.528-.1,1.638-.08,1.313-.308,4.95-.094,1.531-.019.306-.083,1.313-.391,6.283-.03.5-.063,1.027-.016.286-.424,6.784-.052.831-.03.482-.063,1.049-.358,5.737-.083,1.313-.052.851-.094,1.531-.273,4.4-.083,1.313-.135,2.186-.1,1.528-.19,3.07-.083,1.313-.218,3.518-.1,1.528-.061,1.74-.047,1.313Z" transform="translate(-557.335 -92.093)" fill="#ccc"/><path d="M764.432,179.941a1.929,1.929,0,0,1,1.927-1.927H783.7a1.927,1.927,0,1,1,0,3.854H766.359A1.929,1.929,0,0,1,764.432,179.941Z" transform="translate(-558.677 -133.746)" fill="#2f2e41"/><path d="M325.967,114.578a1.929,1.929,0,0,1,1.927-1.927H509.873a1.927,1.927,0,0,1,0,3.854H327.894A1.929,1.929,0,0,1,325.967,114.578Z" transform="translate(-268.883 -90.547)" fill="#2f2e41"/><path d="M782.295,236.777a1.929,1.929,0,0,1,1.927-1.927h17.344a1.927,1.927,0,0,1,0,3.854H784.222a1.929,1.929,0,0,1-1.927-1.927Z" transform="translate(-570.483 -171.311)" fill="#2f2e41"/><rect width="55.598" height="0.551" transform="translate(223.239 128.9) rotate(-89.149)" fill="#b3b3b3"/><rect width="55.598" height="0.551" transform="translate(217.732 192.772) rotate(-89.149)" fill="#b3b3b3"/><rect width="30.274" height="0.551" transform="translate(223.788 214.516) rotate(-88.437)" fill="#b3b3b3"/><path d="M479.034,363.182c2.522-1,5.048-2.8,5.464-5.684a3.141,3.141,0,0,0-.225-1.9,6.942,6.942,0,0,0-.886-1.155,1.354,1.354,0,0,1-.307-1.11,1.609,1.609,0,0,1,.688-1.105c.034-.02-.076-.081-.073-.025,0,.1.048.216.058.323a3.236,3.236,0,0,1-.054.97,3.587,3.587,0,0,1-.937,1.774c-.759.784.438,1.985,1.2,1.2a5.207,5.207,0,0,0,1.453-4.255,1.744,1.744,0,0,0-1.405-1.671,2.293,2.293,0,0,0-2.078,1.182,3.372,3.372,0,0,0-.552,2.135,3.209,3.209,0,0,0,.808,1.782c.125.151.363.411.424.493a1.221,1.221,0,0,1,.237.452,3.357,3.357,0,0,1-.521,2.06,7.159,7.159,0,0,1-3.746,2.905.873.873,0,0,0-.592,1.043.854.854,0,0,0,1.043.592Z" transform="translate(-369.343 -247.764)" fill="#a3d2ee"/><rect width="5.472" height="4.378" transform="translate(200.981 137.859) rotate(180)" fill="#fff"/><rect width="5.472" height="4.378" transform="translate(200.981 148.709) rotate(180)" fill="#fff"/><rect width="5.472" height="4.378" transform="translate(200.981 159.56) rotate(180)" fill="#fff"/><rect width="5.472" height="4.378" transform="translate(200.981 170.41) rotate(180)" fill="#fff"/><rect width="5.472" height="4.378" transform="translate(200.981 181.26) rotate(180)" fill="#fff"/><rect width="5.472" height="4.378" transform="translate(200.981 192.111) rotate(180)" fill="#fff"/><rect width="5.472" height="4.378" transform="translate(200.981 202.961) rotate(180)" fill="#fff"/><rect width="5.472" height="4.378" transform="translate(200.981 213.811) rotate(180)" fill="#fff"/><rect width="5.472" height="4.378" transform="translate(200.981 224.661) rotate(180)" fill="#fff"/></g></svg>