<svg xmlns="http://www.w3.org/2000/svg" xmlns:xlink="http://www.w3.org/1999/xlink" width="674" height="1000" viewBox="0 0 674 1000"><defs><clipPath id="a"><path d="M41.752,0h590.5C655.307,0,674,20.681,674,46.193V953.787c0,25.512-18.693,46.193-41.752,46.193H41.752C18.693,999.98,0,979.3,0,953.787V46.193C0,20.681,18.693,0,41.752,0Z" fill="#429fd6"/></clipPath><clipPath id="b"><rect width="674" height="1000" rx="49" fill="#035196"/></clipPath></defs><g transform="translate(60 60.246)"><g transform="translate(-60 -60.246)"><path d="M41.752,0h590.5C655.307,0,674,20.682,674,46.194V953.806c0,25.512-18.693,46.194-41.752,46.194H41.752C18.693,1000,0,979.318,0,953.806V46.194C0,20.682,18.693,0,41.752,0Z" transform="translate(0)" fill="#429fd6"/><g clip-path="url(#a)"><path d="M7126.247,766.053s-77.815-174.863,99.1-291.059,660.353-115.964,574.148-328.8c-92.893-229.348,32.076-228.169,74.713-268.761s-29.025,888.619-29.025,888.619Z" transform="translate(-7164.828 380.947)" fill="#a3d2ee"/></g><circle cx="40" cy="40" r="40" transform="translate(536 499.99)" fill="#a3d2ee"/><circle cx="65" cy="65" r="65" transform="translate(422 315.837)" fill="#a3d2ee"/></g><g transform="translate(-8.81 515.456)"><path d="M614.884,249.372a158.241,158.241,0,0,1-103.912,148.62,156.429,156.429,0,0,1-28.435,7.463A158.195,158.195,0,1,1,456.7,91.189,158.172,158.172,0,0,1,614.884,249.372Z" transform="translate(-111.16 -69.929)" fill="#e5e5e5"/><path d="M546.325,491.284a156.43,156.43,0,0,1-28.435,7.463,159.251,159.251,0,0,1-79.437-7.214l7.3-29.312.441-1.759,14.908.058,74.893.268.959,2.833Z" transform="translate(-146.513 -163.22)" fill="#2f2e41"/><rect width="137.404" height="155.478" fill="#e6e6e6"/><rect width="132.264" height="148.899" transform="translate(2.45 3.289)" fill="#fff"/><circle cx="7.414" cy="7.414" r="7.414" transform="translate(61.288 132.066)" fill="#e6e6e6"/><rect width="42.583" height="4.356" transform="translate(24.866 55.996)" fill="#e6e6e6"/><rect width="64.27" height="4.356" transform="translate(24.866 69.05)" fill="#a3d2ee"/><rect width="57.961" height="4.356" transform="translate(24.866 82.186)" fill="#e6e6e6"/><rect width="89.504" height="4.356" transform="translate(24.866 94.975)" fill="#a3d2ee"/><rect width="72.944" height="4.356" transform="translate(25.797 107.155)" fill="#e6e6e6"/><g transform="translate(171.035 55.012)"><path d="M301.028,396.444a14.261,14.261,0,0,1,1.434,1.726l67.16-1.643,7.835-14.317,23.152,9L389.2,417.9a10.837,10.837,0,0,1-11.265,6.5l-75.88-9.167a14.22,14.22,0,1,1-1.031-18.8Z" transform="translate(-276.678 -198.463)" fill="#9f616a"/><path d="M430.21,284.108l31.43-10.3,9.231-12.66,44.922,2.658,6.6,14.773L546.343,289.9l-3.681,68.366-6.3,63.981c-32.383-16.769-92.82-3.984-93.349-3.776Z" transform="translate(-315.465 -167.878)" fill="#a3d2ee"/><path d="M428.393,384.5l-31.969-12.791.136-.569c.137-.575,13.744-57.434,15.55-66.571,1.882-9.519,8.758-12.151,9.05-12.258l.213-.079,12.652,3.851,5.557,43.659Z" transform="translate(-306.93 -175.731)" fill="#a3d2ee"/><path d="M526.9,447.053a14.247,14.247,0,0,1,2.242.124L573.6,396.811l-5.171-15.476,22.341-10.858,11.818,26.514a10.837,10.837,0,0,1-2.892,12.68l-58.312,49.407A14.22,14.22,0,1,1,526.9,447.053Z" transform="translate(-336.41 -195.499)" fill="#9f616a"/><path d="M583.031,383.8l-18.545-43.623,7.233-30.386,7.794-9.846a4.489,4.489,0,0,1,3.607.034c2.876,1.157,5.321,4.7,7.275,10.538l17.38,49.506Z" transform="translate(-349.388 -177.59)" fill="#a3d2ee"/><path d="M460.556,213.454V180.566a44.07,44.07,0,0,1,88.139-.292q0,.146,0,.292v32.888a5.927,5.927,0,0,1-5.92,5.92h-76.3A5.927,5.927,0,0,1,460.556,213.454Z" transform="translate(-323.132 -136.35)" fill="#2f2e41"/><circle cx="32.31" cy="32.31" r="32.31" transform="translate(140.128 17.637)" fill="#9f616a"/><path d="M446.606,187.249a34.9,34.9,0,0,1,34.861-34.861h6.578a34.9,34.9,0,0,1,34.861,34.861v.658h-13.9l-4.741-13.278-.948,13.278h-7.183l-2.392-6.7-.479,6.7H446.606Z" transform="translate(-319.608 -140.402)" fill="#2f2e41"/><path d="M502.766,232.058a5.832,5.832,0,0,1-.464-6.192c6.97-13.258,16.729-37.755,3.776-52.863l-.929-1.084h37.607V228.38l-34.163,6.028a6.039,6.039,0,0,1-1.047.092,5.9,5.9,0,0,1-4.778-2.441Z" transform="translate(-333.507 -145.336)" fill="#2f2e41"/></g><g transform="translate(52.816 12.109)"><path d="M134.264,78.945a15.766,15.766,0,1,0,15.765,15.766h0a15.766,15.766,0,0,0-15.766-15.766Zm0,4.729a4.729,4.729,0,1,1-4.729,4.729h0a4.729,4.729,0,0,1,4.73-4.73Zm0,22.769a11.486,11.486,0,0,1-9.46-5.048c.076-3.153,6.306-4.889,9.46-4.889s9.384,1.736,9.46,4.889a11.5,11.5,0,0,1-9.46,5.048Z" transform="translate(-118.497 -78.944)" fill="#a3d2ee"/></g><path d="M138.933,247.055c6.5-11.9,22.055-19.44,34.783-12.646a23.023,23.023,0,0,1,11.729,14.86c1.678,7.426-1.857,14.508-5.507,20.747-1.981,3.387-4.151,6.7-5.79,10.276-1.7,3.7-2.911,7.974-1.633,12,1.15,3.625,4.035,6.262,7.194,8.2a53.6,53.6,0,0,0,11.054,4.937,65.069,65.069,0,0,0,24.679,3.193,67.49,67.49,0,0,0,12.3-1.988c4.287-1.093,8.494-2.478,12.787-3.547,7.169-1.781,15.343-2.666,22.141.911,6.6,3.476,9.56,10.746,10.474,17.819,1.688,13.06-3.49,26.613-12.84,35.759a36,36,0,0,1-16.279,9.5c-5.364,1.294-12.253,1.211-16.522-2.8-4.764-4.476-3.643-11.652.14-16.374,4.829-6.025,13.011-7.472,20.312-7.619,8.305-.167,16.6,1.07,24.9.3a38.252,38.252,0,0,0,11.777-2.841,29.843,29.843,0,0,0,8.875-6.006,38.989,38.989,0,0,0,10.3-18.507c2.069-8.293,1.618-17.008.012-25.338a114.278,114.278,0,0,0-3.3-12.706c-.555-1.759-3.332-1.007-2.773.765,4.947,15.686,7.7,33.824-1.853,48.388a28.812,28.812,0,0,1-17.229,12.4c-8.272,2.056-16.952,1.04-25.362.734-8-.291-16.777.023-23.632,4.68-5.623,3.82-9.556,11.086-7.856,17.945,1.639,6.615,8,9.97,14.354,10.487,6.671.544,13.236-1.7,18.838-5.2a46.564,46.564,0,0,0,21.025-33.67c.845-7.076-.015-14.7-3.224-21.119a20.675,20.675,0,0,0-7.6-8.466,24.985,24.985,0,0,0-10.822-3.335c-8.6-.792-16.869,2.161-25.03,4.421a69.409,69.409,0,0,1-12.764,2.436A63.738,63.738,0,0,1,204,305.45a62.007,62.007,0,0,1-12.2-2.708,48.844,48.844,0,0,1-11.077-5.008c-3.061-1.957-5.708-4.76-5.858-8.58-.163-4.142,1.925-8.017,3.911-11.509,3.924-6.9,8.772-13.645,9.8-21.721.9-7.064-1.946-14.027-6.855-19.065a25.775,25.775,0,0,0-19.048-7.9,30.886,30.886,0,0,0-19.612,8.239,32.287,32.287,0,0,0-6.615,8.4c-.887,1.625,1.6,3.078,2.483,1.451Z" transform="translate(-70.167 -104.733)" fill="#3f3d56"/></g></g></svg>