<svg xmlns="http://www.w3.org/2000/svg" width="50" height="50" viewBox="0 0 50 50"><path d="M25,45A20,20,0,1,0,5,25,20,20,0,0,0,25,45Zm0,5A25,25,0,1,1,50,25,25,25,0,0,1,25,50Z"/><path d="M30,8.368a10.362,10.362,0,0,1-2.945.8A5.087,5.087,0,0,0,29.31,6.37,10.4,10.4,0,0,1,26.05,7.6,5.15,5.15,0,0,0,22.308,6a5.09,5.09,0,0,0-5.128,5.05,4.991,4.991,0,0,0,.133,1.15A14.635,14.635,0,0,1,6.743,6.925a4.955,4.955,0,0,0-.7,2.537,5.029,5.029,0,0,0,2.283,4.2,5.19,5.19,0,0,1-2.325-.632V13.1a5.075,5.075,0,0,0,4.115,4.95A5.27,5.27,0,0,1,7.8,18.13a5.122,5.122,0,0,0,4.79,3.508,10.39,10.39,0,0,1-6.37,2.16A10.993,10.993,0,0,1,5,23.728,14.657,14.657,0,0,0,12.86,26,14.375,14.375,0,0,0,27.453,11.63l-.017-.655A10.158,10.158,0,0,0,30,8.368Z" transform="translate(7.5 9)"/></svg>