<svg xmlns="http://www.w3.org/2000/svg" xmlns:xlink="http://www.w3.org/1999/xlink" width="960" height="710" viewBox="0 0 960 710"><defs><clipPath id="a"><rect width="960" height="710" transform="translate(960 201)" fill="#fff"/></clipPath></defs><g transform="translate(-960 -201)" clip-path="url(#a)"><path d="M2027.9,462.973s-512.714-321.4-711.678-252.531-88,172.18-149.223,271.662-99.482,103.308-187.485,145.4S875.776,828.856,1056.038,845.6s176.339-86.6,256.537-83.112S1993.464,933.6,2027.9,906.816" transform="translate(53.424 20)" fill="#035196"/><path d="M2027.9,462.973s-512.714-321.4-711.678-252.531-88,172.18-149.223,271.662-99.482,103.308-187.485,145.4S857.075,837.943,1056.038,845.6s191.311-141.57,260.183-99.482S1993.464,933.6,2027.9,906.816" transform="translate(50.424)" fill="#a3d2ee"/><g transform="translate(0 -23)"><path d="M1066.573,863.19a1.245,1.245,0,0,1-.791-.283c-.143-.117-3.552-2.916-8.674-7.941a201.433,201.433,0,0,1-18.852-21.33,145.6,145.6,0,0,1-18.48-31.189c-5.455-12.918-7.964-25.56-7.457-37.575a70.4,70.4,0,0,1,2.949-17.425,75.626,75.626,0,0,1,7.973-17.586,97.1,97.1,0,0,1,13.834-17.4,141.968,141.968,0,0,1,20.523-16.911c52.485-36.019,106.509-74.487,146.091-111.756,21.319-20.073,36.739-38.065,47.139-55,11.4-18.563,16.445-35.788,15-51.2a1.25,1.25,0,1,1,2.489-.233,61.943,61.943,0,0,1-.167,12.825,75.709,75.709,0,0,1-2.746,13.089,115.587,115.587,0,0,1-12.445,26.822,214.426,214.426,0,0,1-20.474,27.515,382.371,382.371,0,0,1-27.081,28c-18.263,17.2-40.631,35.681-68.382,56.512-26.849,20.154-55.792,40.239-78.008,55.485-28.259,19.393-43.129,42.059-44.2,67.367-1.114,26.416,13.213,51.094,25.429,67.145a198.9,198.9,0,0,0,18.614,21.059c5.042,4.947,8.472,7.763,8.506,7.791a1.25,1.25,0,0,1-.792,2.218Z" fill="#7df8bb"/><path d="M1849.967,400.182a1.246,1.246,0,0,1-.5-.1c-10.057-4.384-23.377-10.538-38.8-17.664-55.428-25.61-139.19-64.311-223.365-91.83-46.3-15.138-87.4-25.048-122.141-29.455a318.454,318.454,0,0,0-39.913-2.709c-23.035,0-42.715,3.135-58.8,9.389a1.25,1.25,0,1,1-.906-2.33,128.986,128.986,0,0,1,21.643-6.188,179.938,179.938,0,0,1,24.1-2.992,252.487,252.487,0,0,1,26.21-.112c8.833.4,18.245,1.227,27.975,2.461a536.744,536.744,0,0,1,59.858,11.433c19.5,4.791,40.611,10.89,62.746,18.126,19.746,6.455,40.885,14.006,62.829,22.442,18.951,7.286,39.171,15.49,60.1,24.385,38.523,16.376,73,32.307,100.711,45.109,15.41,7.12,28.719,13.269,38.75,17.642a1.25,1.25,0,0,1-.5,2.4Z" fill="#7df8bb"/><path d="M1260.87,400.182a1.25,1.25,0,0,1-1.246-1.174c-1.843-30.4,4.308-56.908,18.281-78.778a113.709,113.709,0,0,1,19.92-23.382,123.947,123.947,0,0,1,20.294-14.748,1.25,1.25,0,0,1,1.26,2.159c-23.159,13.51-61.394,46.362-57.258,114.6a1.25,1.25,0,0,1-1.172,1.323Z" fill="#7df8bb"/></g><g transform="translate(0 -23)"><g transform="translate(1721.287 808.128) rotate(-93)"><path d="M10.724.282c2.516,0,4.558,8.908,4.558,19.888S13.24,40.058,10.724,40.058s-4.558-8.9-4.558-19.888S8.208.282,10.724.282Zm5.795,48.142c5.337.03,6,10.1,10.5,27.325,2.243,12.535-.669,20.436-5.661,17.053-2.264-3.284-3.857-4.442-5.455-4.29-2.768.274-3.466,5.471-6.686,5.105-2.484-.19-3.6-3.155-3.82-7.673a42.606,42.606,0,0,1,1.21-11.8c3.078-15.453,6.261-27.653,9.912-25.717ZM1.92,29.778C.039,31.9-.561,40.271.579,48.478S4.169,61.622,6.05,59.5,8.532,49.011,7.391,40.8,3.8,27.66,1.92,29.778Zm28.206,0c1.882,2.118,2.481,10.493,1.341,18.7S27.875,61.622,26,59.5s-2.481-10.493-1.341-18.7,3.589-13.144,5.471-11.026ZM21.24,0C23.756,0,25.8,8.908,25.8,19.888S23.756,39.776,21.24,39.776s-4.558-8.9-4.558-19.888S18.724,0,21.24,0Z" transform="translate(0 0)" fill="#f98e8e" fill-rule="evenodd"/></g><g transform="translate(1801.287 755.128) rotate(-93)"><path d="M10.724.282c2.516,0,4.558,8.908,4.558,19.888S13.24,40.058,10.724,40.058s-4.558-8.9-4.558-19.888S8.208.282,10.724.282Zm5.795,48.142c5.337.03,6,10.1,10.5,27.325,2.243,12.535-.669,20.436-5.661,17.053-2.264-3.284-3.857-4.442-5.455-4.29-2.768.274-3.466,5.471-6.686,5.105-2.484-.19-3.6-3.155-3.82-7.673a42.606,42.606,0,0,1,1.21-11.8c3.078-15.453,6.261-27.653,9.912-25.717ZM1.92,29.778C.039,31.9-.561,40.271.579,48.478S4.169,61.622,6.05,59.5,8.532,49.011,7.391,40.8,3.8,27.66,1.92,29.778Zm28.206,0c1.882,2.118,2.481,10.493,1.341,18.7S27.875,61.622,26,59.5s-2.481-10.493-1.341-18.7,3.589-13.144,5.471-11.026ZM21.24,0C23.756,0,25.8,8.908,25.8,19.888S23.756,39.776,21.24,39.776s-4.558-8.9-4.558-19.888S18.724,0,21.24,0Z" transform="translate(0 0)" fill="#f98e8e" fill-rule="evenodd"/></g><g transform="translate(1896.472 858.128) rotate(-93)"><path d="M10.724.282c2.516,0,4.558,8.908,4.558,19.888S13.24,40.058,10.724,40.058s-4.558-8.9-4.558-19.888S8.208.282,10.724.282Zm5.795,48.142c5.337.03,6,10.1,10.5,27.325,2.243,12.535-.669,20.436-5.661,17.053-2.264-3.284-3.857-4.442-5.455-4.29-2.768.274-3.466,5.471-6.686,5.105-2.484-.19-3.6-3.155-3.82-7.673a42.606,42.606,0,0,1,1.21-11.8c3.078-15.453,6.261-27.653,9.912-25.717ZM1.92,29.778C.039,31.9-.561,40.271.579,48.478S4.169,61.622,6.05,59.5,8.532,49.011,7.391,40.8,3.8,27.66,1.92,29.778Zm28.206,0c1.882,2.118,2.481,10.493,1.341,18.7S27.875,61.622,26,59.5s-2.481-10.493-1.341-18.7,3.589-13.144,5.471-11.026ZM21.24,0C23.756,0,25.8,8.908,25.8,19.888S23.756,39.776,21.24,39.776s-4.558-8.9-4.558-19.888S18.724,0,21.24,0Z" transform="translate(28.066 -0.532)" fill="#f98e8e" fill-rule="evenodd"/></g><g transform="translate(1586.472 771.228) rotate(-93)"><path d="M10.724.282c2.516,0,4.558,8.908,4.558,19.888S13.24,40.058,10.724,40.058s-4.558-8.9-4.558-19.888S8.208.282,10.724.282Zm5.795,48.142c5.337.03,6,10.1,10.5,27.325,2.243,12.535-.669,20.436-5.661,17.053-2.264-3.284-3.857-4.442-5.455-4.29-2.768.274-3.466,5.471-6.686,5.105-2.484-.19-3.6-3.155-3.82-7.673a42.606,42.606,0,0,1,1.21-11.8c3.078-15.453,6.261-27.653,9.912-25.717ZM1.92,29.778C.039,31.9-.561,40.271.579,48.478S4.169,61.622,6.05,59.5,8.532,49.011,7.391,40.8,3.8,27.66,1.92,29.778Zm28.206,0c1.882,2.118,2.481,10.493,1.341,18.7S27.875,61.622,26,59.5s-2.481-10.493-1.341-18.7,3.589-13.144,5.471-11.026ZM21.24,0C23.756,0,25.8,8.908,25.8,19.888S23.756,39.776,21.24,39.776s-4.558-8.9-4.558-19.888S18.724,0,21.24,0Z" transform="translate(0 0)" fill="#f98e8e" fill-rule="evenodd"/></g></g></g></svg>