<svg xmlns="http://www.w3.org/2000/svg" width="36" height="36" viewBox="0 0 36 36"><path d="M9.915,14.8a30.028,30.028,0,0,0,4.416,6.219,25.3,25.3,0,0,0,7,5.191.724.724,0,0,0,.607.032,2.607,2.607,0,0,0,.841-.618,9.4,9.4,0,0,0,.768-.945c1.125-1.487,2.517-3.333,4.483-2.409.044.021.076.044.12.062l6.558,3.79c.021.012.044.032.062.044A2.976,2.976,0,0,1,36,28.73,6.972,6.972,0,0,1,35.038,32a6.671,6.671,0,0,1-3.153,2.8A14.314,14.314,0,0,1,28,35.862a13.13,13.13,0,0,1-5.939-.5,26.3,26.3,0,0,1-5.975-2.9l-.155-.1c-.97-.61-2.019-1.26-3.047-2.029a38.352,38.352,0,0,1-10.1-11.522C.688,15-.455,10.891.17,6.972A8.509,8.509,0,0,1,3.032,1.577,7.649,7.649,0,0,1,8.737.046.823.823,0,0,1,9.4.47l4.2,7.144A2.242,2.242,0,0,1,13.956,10a4.638,4.638,0,0,1-1.609,1.811c-.226.194-.5.392-.779.6-.941.686-2.01,1.478-1.644,2.409L9.915,14.8Z" transform="translate(0.001 -0.003)" fill="#f7f7f7"/></svg>