<svg xmlns="http://www.w3.org/2000/svg" width="300" height="253.548" viewBox="0 0 300 253.548"><g transform="translate(0.001 0)"><path d="M572.867,575.528H437.018a3.18,3.18,0,0,1-3.177-3.177V479.588a3.18,3.18,0,0,1,3.177-3.177h135.85a3.18,3.18,0,0,1,3.177,3.177v92.764A3.18,3.18,0,0,1,572.867,575.528Z" transform="translate(-342.488 -340.316)" fill="#fff"/><path d="M572.867,575.528H437.018a3.18,3.18,0,0,1-3.177-3.177V479.588a3.18,3.18,0,0,1,3.177-3.177h135.85a3.18,3.18,0,0,1,3.177,3.177v92.764A3.18,3.18,0,0,1,572.867,575.528Zm-135.85-98.411a2.473,2.473,0,0,0-2.471,2.471v92.764a2.473,2.473,0,0,0,2.471,2.471h135.85a2.473,2.473,0,0,0,2.471-2.471V479.588a2.473,2.473,0,0,0-2.471-2.471Z" transform="translate(-342.488 -340.316)" fill="#3f3d56"/><path d="M622.185,651.661H590.734V599.593a4.663,4.663,0,0,1,4.658-4.658h22.135a4.663,4.663,0,0,1,4.658,4.658Z" transform="translate(-444.005 -417.006)" fill="#e6e6e6"/><path d="M773.817,359.537H755.856V329.521a3.18,3.18,0,0,1,3.177-3.177H770.64a3.18,3.18,0,0,1,3.177,3.177Z" transform="translate(-550.847 -243.215)" fill="#fff"/><path d="M773.817,359.537H755.856V329.521a3.18,3.18,0,0,1,3.177-3.177H770.64a3.18,3.18,0,0,1,3.177,3.177Zm-17.255-.706h16.549V329.521a2.473,2.473,0,0,0-2.471-2.471H759.033a2.473,2.473,0,0,0-2.471,2.471Z" transform="translate(-550.847 -243.215)" fill="#3f3d56"/><circle cx="34.587" cy="34.587" r="34.587" transform="translate(87.119 59.789)" fill="#f2f2f2"/><path d="M757.043,168.688a6.1,6.1,0,0,1-.087-12.194c6.932-.317,12.607-7.756,11.082-14.525s-9.843-11.055-16.241-8.368c-4.908,2.061-9.867-4.433-8.623-9.608s5.951-8.651,10.306-11.712,9.014-6.654,10.065-11.872-4.33-11.469-9.072-9.05" transform="translate(-542.515 -90.821)" fill="#e6e6e6"/><path d="M497.066,582.98H470.5a4,4,0,0,1-4-4v-21.9a4,4,0,0,1,4-4h26.567a4,4,0,0,1,4,4v21.9A4,4,0,0,1,497.066,582.98Z" transform="translate(-363.622 -389.926)" fill="#e6e6e6"/><path d="M738.46,582.98H711.893a4,4,0,0,1-4-4v-21.9a4,4,0,0,1,4-4H738.46a4,4,0,0,1,4,4v21.9a4,4,0,0,1-4,4Z" transform="translate(-519.815 -389.926)" fill="#e6e6e6"/><path d="M405.1,361.161V346.888a6.22,6.22,0,0,1,3.133-5.4l79.3-45.324a6.22,6.22,0,0,1,6.431.156l70.749,45.125a6.22,6.22,0,0,1,2.875,5.244v14.471a6.22,6.22,0,0,1-6.22,6.22H411.324a6.22,6.22,0,0,1-6.219-6.219Z" transform="translate(-323.895 -223.157)" fill="#a3d2ee"/><path d="M561.373,470.033H411.324a6.22,6.22,0,0,1-6.22-6.22v5.647a6.22,6.22,0,0,0,6.22,6.22H561.373a6.22,6.22,0,0,0,6.22-6.22v-5.647a6.22,6.22,0,0,1-6.22,6.22Z" transform="translate(-323.895 -332.164)" opacity="0.2"/><path d="M882.367,552.134c0-10.945,8.873-36.917,19.817-36.917S922,541.19,922,552.134a19.817,19.817,0,1,1-39.635,0Z" transform="translate(-632.705 -365.425)" fill="#f2f2f2"/><path d="M937.867,624.294a.353.353,0,0,1-.353-.353V552.782a.353.353,0,1,1,.706,0v71.159A.353.353,0,0,1,937.867,624.294Z" transform="translate(-668.388 -389.503)" fill="#3f3d56"/><path d="M937.867,622.161a.353.353,0,0,1-.255-.6l10.074-10.572a.353.353,0,1,1,.511.487l-10.074,10.572a.352.352,0,0,1-.256.109Z" transform="translate(-668.388 -427.325)" fill="#3f3d56"/><path d="M921.907,576.451a.351.351,0,0,1-.238-.093l-8.706-7.96a.353.353,0,0,1,.476-.521l8.706,7.96a.353.353,0,0,1-.238.613Z" transform="translate(-652.428 -399.439)" fill="#3f3d56"/><path d="M197.045,458.558c0-16.1,13.052-54.306,29.152-54.306s29.152,38.206,29.152,54.306a29.152,29.152,0,1,1-58.3,0Z" transform="translate(-189.27 -293.625)" fill="#a3d2ee"/><path d="M278.993,564.846a.353.353,0,0,1-.353-.353V459.815a.353.353,0,0,1,.706,0V564.493A.353.353,0,0,1,278.993,564.846Z" transform="translate(-242.066 -329.349)" fill="#3f3d56"/><path d="M278.993,561.707a.353.353,0,0,1-.255-.6l14.819-15.551a.353.353,0,0,1,.511.487L279.249,561.6a.352.352,0,0,1-.256.109Z" transform="translate(-242.066 -384.987)" fill="#3f3d56"/><path d="M255.515,494.466a.351.351,0,0,1-.238-.092L242.47,482.664a.353.353,0,0,1,.476-.521l12.807,11.709a.353.353,0,0,1-.238.613Z" transform="translate(-218.588 -343.965)" fill="#3f3d56"/><path d="M895.848,734.025c.033.026.069.049.1.074h28.7a10.4,10.4,0,0,0-.079-6.54c-1.2-2.822-4.739-4.584-7.555-3.372a4.3,4.3,0,0,0-1.689,1.336,6.323,6.323,0,0,0-5.353-3.453c-2.855,0-5.228,2.336-6,5.033-1.247-2.105-3.711-3.576-6.119-2.944C893.825,725.218,892.553,731.478,895.848,734.025Z" transform="translate(-640.213 -499.268)" fill="#e6e6e6"/><path d="M193.8,713.483c.067.052.139.1.207.15h57.935c1.135-4.6,1.536-9.2-.16-13.2-2.416-5.7-9.566-9.254-15.251-6.807a8.679,8.679,0,0,0-3.409,2.7c-2.221-3.977-6.206-6.975-10.806-6.971-5.763,0-10.554,4.717-12.117,10.16-2.518-4.25-7.491-7.22-12.352-5.942C189.722,695.7,187.153,708.343,193.8,713.483Z" transform="translate(-184.72 -478.097)" fill="#e6e6e6"/><rect width="299.999" height="0.706" transform="translate(-0.001 235.077) rotate(-0.108)" fill="#3f3d56"/><path d="M432.97,684.349a1.97,1.97,0,0,0-1.761-2.455L420,667.88l-2.773,2.585,11.841,13.386a1.981,1.981,0,0,0,3.9.5Z" transform="translate(-331.738 -464.205)" fill="#ffb8b8"/><path d="M417.406,664.308l-3.542,2.713a.883.883,0,0,1-1.31-.273l-2.158-3.89a2.453,2.453,0,0,1,3.9-2.972l3.183,3.086a.883.883,0,0,1-.078,1.335Z" transform="translate(-326.994 -458.406)" fill="#3f3d56"/><circle cx="4.505" cy="4.505" r="4.505" transform="translate(79.958 188.433)" fill="#ffb8b8"/><path d="M264.193,704.467h2.249l-.214-4.208h-3.318Z" transform="translate(-170.115 -453.1)" fill="#ffb8b8"/><path d="M439.939,800.924h4.428a2.822,2.822,0,0,1,2.822,2.822v.092h-7.25Z" transform="translate(-346.434 -550.29)" fill="#2f2e41"/><path d="M198.626,695.9l1.913,1.182,2.029-3.693-2.315-1.448Z" transform="translate(-128.521 -447.72)" fill="#ffb8b8"/><path d="M370.546,791.361l3.767,2.327h0a2.822,2.822,0,0,1,.918,3.884l-.048.078-6.168-3.81Z" transform="translate(-300.543 -544.103)" fill="#2f2e41"/><path d="M397.837,733.632a.824.824,0,0,1-.77-.532l-8.133-19.446a.275.275,0,0,0-.486-.059l-11.173,17.6a.822.822,0,0,1-1.034.288l-1.529-.714a.829.829,0,0,1-.4-1.086l9.154-20.405c-.2-.486-2.149-5.479.846-7.946l.021-.013,8.123-3.623.2,6.231,8.1,28.091a.825.825,0,0,1-.583,1.027l-2.121.558A.828.828,0,0,1,397.837,733.632Z" transform="translate(-303.922 -483.498)" fill="#2f2e41"/><path d="M408.2,660.749a7.2,7.2,0,0,0-1.335-3.07,7.451,7.451,0,0,1-.608-.67,4.453,4.453,0,0,0-1.458-1.195c.207-.115.328-.253.328-.4,0-.405-.9-.734-2.017-.734s-2.017.328-2.017.734a.358.358,0,0,0,.12.247,4.293,4.293,0,0,0-2.654,3.579c-.261,2.791-.337,6.358.577,8.614a8.306,8.306,0,0,1,.171,5.854.733.733,0,0,0,.97.911l8.06-3.248a.734.734,0,0,0,.459-.68v-4.933A20.717,20.717,0,0,0,408.2,660.749Z" transform="translate(-319.546 -455.664)" fill="#3f3d56"/><path d="M378.024,692.5a1.97,1.97,0,0,0,1.365-2.695l6.306-16.63-3.2-.826L376.664,688.8a1.981,1.981,0,0,0,1.359,3.692Z" transform="translate(-304.792 -467.094)" fill="#ffb8b8"/><path d="M395.82,668.417l-4.041-1.892a.883.883,0,0,1-.362-1.288l2.456-3.709a2.453,2.453,0,1,1,4.438,2.093l-1.27,4.248a.883.883,0,0,1-1.221.547Z" transform="translate(-314.943 -459.185)" fill="#3f3d56"/><path d="M400.838,624.419a1.027,1.027,0,0,0,.591-.107c.332-.217.3-.712.187-1.093a5.686,5.686,0,0,0-3.916-3.811,1.65,1.65,0,0,0-1.82.389,4.632,4.632,0,0,0-5.993.736,6.275,6.275,0,0,0-1.407,3c-.385,1.886-2.033,5.776-1.12,7.47.608,1.127,3.4.249,4.587.74a3.907,3.907,0,0,0,3.671-.3,3,3,0,0,0,1.152-3.377,10.444,10.444,0,0,0-.714-1.3,2.093,2.093,0,0,1-.31-1.42C395.911,624.594,399.466,624.39,400.838,624.419Z" transform="translate(-312.237 -432.59)" fill="#2f2e41"/></g></svg>