<svg xmlns="http://www.w3.org/2000/svg" xmlns:xlink="http://www.w3.org/1999/xlink" width="300" height="201.229" viewBox="0 0 300 201.229"><defs><linearGradient id="a" x1="0.5" y1="1" x2="0.5" gradientUnits="objectBoundingBox"><stop offset="0" stop-color="gray" stop-opacity="0.251"/><stop offset="0.54" stop-color="gray" stop-opacity="0.122"/><stop offset="1" stop-color="gray" stop-opacity="0.102"/></linearGradient></defs><g transform="translate(0 0.03)"><path d="M376,763.829c0,1.569-13.723,3-36.415,4.1-4.125.2-8.548.386-13.237.573q-6.08.232-12.741.432-6.458.192-13.406.358c-14.634.349-30.807.6-47.991.727q-6.255.049-12.678.072-6.69.026-13.531.023c-82.844,0-150-2.811-150-6.281s67.156-6.3,150-6.3c35.665,0,68.416.521,94.162,1.391l2.814.094h.017C355.421,760.188,376,761.906,376,763.829Z" transform="translate(-76 -568.919)" fill="#3f3d56"/><path d="M376,763.829c0,1.569-13.723,3-36.415,4.1-4.125.2-8.548.386-13.237.573q-6.08.232-12.741.432-6.458.192-13.406.358c-14.634.349-30.807.6-47.991.727q-6.255.049-12.678.072-6.69.026-13.531.023c-82.844,0-150-2.811-150-6.281s67.156-6.3,150-6.3c35.665,0,68.416.521,94.162,1.391l2.814.094h.017C355.421,760.188,376,761.906,376,763.829Z" transform="translate(-76 -568.919)" opacity="0.1"/><path d="M376,755.628c0,1.569-13.723,3-36.415,4.1-4.125.2-8.548.389-13.237.573q-6.08.232-12.741.432-6.458.192-13.406.358c-14.634.349-30.807.6-47.991.727q-6.255.043-12.678.072-6.69.023-13.531.023c-82.844,0-150-2.811-150-6.281s67.156-6.283,150-6.283c35.665,0,68.416.521,94.162,1.391l2.814.094h.017C355.421,751.987,376,753.7,376,755.628Z" transform="translate(-76 -563.074)" fill="#3f3d56"/><path d="M376,755.6c0,1.569-13.723,3-36.415,4.108-4.125.2-8.548.386-13.237.573q-6.08.226-12.741.432-6.458.192-13.4.358c-14.636.349-30.81.6-47.994.727q-6.252.043-12.678.069-6.69.026-13.531.029c-82.844,0-150-2.814-150-6.3,0-2.991,49.978-5.5,116.9-6.126q5.725-.057,11.579-.092,10.54-.06,21.521-.063t21.521.063q5.865.037,11.576.092c22.743.212,43.534.644,61.062,1.237l2.814.094h.02C355.421,751.965,376,753.682,376,755.6Z" transform="translate(-76 -563.052)" fill="#3f3d56"/><path d="M684.885,207.092l-23.21,1.071,22.806-4.657a28.952,28.952,0,0,0-1.718-5.994,29.01,29.01,0,1,0-37.177-44.37l16.185,20.9L642.825,156.2a29.07,29.07,0,0,0-5.768,22.257l16.586,4.58-16.031-1.849a29.386,29.386,0,0,0,1.26,3.81,29.012,29.012,0,0,0-9.807,34.506,29.01,29.01,0,0,0,3.81,49.34,10,10,0,0,0-1.506,3.126,9.533,9.533,0,0,0-.112,5,9.913,9.913,0,0,0-2.656,9.318,9.913,9.913,0,0,0-2.656,9.318,9.907,9.907,0,0,0-2.657,9.318,9.558,9.558,0,0,0-2.545,4.314c-1.2,4.208.435,8.367,3.653,9.283s6.8-1.755,8-5.966a9.564,9.564,0,0,0,.115-5,9.931,9.931,0,0,0,2.657-9.318,9.933,9.933,0,0,0,2.656-9.321,9.925,9.925,0,0,0,2.656-9.318,9.527,9.527,0,0,0,2.542-4.314,9.921,9.921,0,0,0,.372-3.4A29.009,29.009,0,0,0,672.9,232a29.024,29.024,0,0,0,11.969-24.9Z" transform="translate(-462.175 -131.764)" fill="#f2f2f2"/><ellipse cx="35.007" cy="3.701" rx="35.007" ry="3.701" transform="translate(114.993 188.718)" opacity="0.1"/><circle cx="69.676" cy="69.676" r="69.676" transform="translate(80.324 53.741)" fill="#3f3d56"/><path d="M513.549,385.432a57.9,57.9,0,0,1-57.9,57.9c-1.835,0-3.653-.083-5.439-.252a57.905,57.905,0,0,1-52.42-55.692q-.034-.976-.034-1.952,0-2.193.163-4.351A57.906,57.906,0,0,1,511.239,369.2c.123.432.246.859.364,1.3q.644,2.433,1.088,4.949a58.4,58.4,0,0,1,.859,9.985Z" transform="translate(-305.653 -262.018)" opacity="0.1"/><path d="M513.628,476.872a57.9,57.9,0,0,1-115.758,1.952c6.6.189,13.325-.029,19.563-2.178,6.761-2.327,12.55-6.781,18.776-10.305,16.726-9.432,36.687-11.971,55.795-10.1a71.642,71.642,0,0,1,19.311,4.371,57.936,57.936,0,0,1,2.313,16.251Z" transform="translate(-305.732 -353.458)" fill="#585ec7" opacity="0.4"/><path d="M563.982,491.142a57.9,57.9,0,0,1-57.9,57.9c-1.835,0-3.653-.083-5.439-.252a57.9,57.9,0,0,1-32.227-49.969c6.6.189,13.325-.029,19.563-2.178,6.764-2.327,12.55-6.781,18.776-10.305,16.574-9.349,36.323-11.923,55.274-10.154q.644,2.433,1.088,4.949A58.4,58.4,0,0,1,563.982,491.142Z" transform="translate(-356.086 -367.729)" fill="#585ec7" opacity="0.4"/><path d="M513.542,504.812a57.9,57.9,0,0,1-115.792,0q0-2.193.163-4.351a45.965,45.965,0,0,1,13.219,3.678c6.79,3.049,12.83,7.729,19.892,10.079,5.153,1.718,10.632,2.127,16.053,2.29,6.77.215,13.683.043,20.087-2.164,6.761-2.327,12.547-6.781,18.776-10.291a82.247,82.247,0,0,1,26.74-9.243A58.4,58.4,0,0,1,513.542,504.812Z" transform="translate(-305.646 -381.398)" fill="#585ec7"/><path d="M966.753,110.016l-5.224,3.312,3.172-5.768a5.153,5.153,0,0,0-3.149-1.128h-.086a6.178,6.178,0,0,1-1.082-.08l-1.772,1.122.759-1.38a6.315,6.315,0,0,1-3.1-2.35l-3.169,2,2-3.641a9.277,9.277,0,0,0-7.1-3.587c-3.295,0-6.229,1.958-8.124,5.012a6.074,6.074,0,0,1-5.37,2.9h-.177c-3.638,0-6.584,4.125-6.584,9.215s2.948,9.212,6.584,9.212a4.955,4.955,0,0,0,2.29-.573,9.5,9.5,0,0,1,7.972-.157,8.324,8.324,0,0,0,6.779.017,9.508,9.508,0,0,1,7.9.152,4.932,4.932,0,0,0,2.27.573c3.638,0,6.584-4.125,6.584-9.212A11.7,11.7,0,0,0,966.753,110.016Z" transform="translate(-683.928 -98.55)" fill="#f2f2f2"/><path d="M956.86,153.395a9.733,9.733,0,0,0-5.645.613,8.3,8.3,0,0,1-6.776,0,9.511,9.511,0,0,0-7.975.155,4.924,4.924,0,0,1-2.29.573c-3.246-.011-5.923-3.278-6.484-7.572a6.178,6.178,0,0,0,1.615-1.74c1.9-3.054,4.832-5.012,8.127-5.012s6.195,1.935,8.09,4.955a6.238,6.238,0,0,0,5.37,2.951h.083C953.542,148.322,955.775,150.386,956.86,153.395Z" transform="translate(-683.886 -128.449)" opacity="0.03"/><path d="M220.55,111.367l-2.6,1.652,1.583-2.863a2.576,2.576,0,0,0-1.577-.573h-.04a3.088,3.088,0,0,1-.541-.04l-.885.573.381-.69a3.149,3.149,0,0,1-1.546-1.171l-1.58,1,1-1.818a4.635,4.635,0,0,0-3.541-1.789,4.852,4.852,0,0,0-4.053,2.5,3.031,3.031,0,0,1-2.679,1.431h-.089c-1.815,0-3.286,2.055-3.286,4.594s1.471,4.58,3.286,4.58a2.468,2.468,0,0,0,1.145-.286,4.74,4.74,0,0,1,3.976-.077,4.157,4.157,0,0,0,3.381,0,4.758,4.758,0,0,1,3.942.074,2.43,2.43,0,0,0,1.131.286c1.815,0,3.286-2.055,3.286-4.58a5.8,5.8,0,0,0-.687-2.808Z" transform="translate(-165.282 -103.639)" fill="#f2f2f2"/><path d="M215.633,133.022a4.829,4.829,0,0,0-2.814.306,4.157,4.157,0,0,1-3.381,0,4.746,4.746,0,0,0-3.979.077,2.448,2.448,0,0,1-1.145.286c-1.615,0-2.954-1.623-3.235-3.764a3.129,3.129,0,0,0,.807-.859,4.532,4.532,0,0,1,8.087-.029,3.106,3.106,0,0,0,2.679,1.471h.043A3.335,3.335,0,0,1,215.633,133.022Z" transform="translate(-165.275 -118.57)" opacity="0.03"/><path d="M360.576,213.177l4.2,2.654-2.542-4.62a4.145,4.145,0,0,1,2.533-.9h.066a4.637,4.637,0,0,0,.859-.066l1.417.9-.615-1.108a5.055,5.055,0,0,0,2.482-1.884l2.539,1.612-1.586-2.9A7.424,7.424,0,0,1,375.613,204a7.806,7.806,0,0,1,6.512,4.008,4.866,4.866,0,0,0,4.294,2.322h.143c2.914,0,5.276,3.3,5.276,7.38s-2.362,7.383-5.276,7.383a3.967,3.967,0,0,1-1.841-.461,7.62,7.62,0,0,0-6.386-.126,6.65,6.65,0,0,1-5.439.014,7.615,7.615,0,0,0-6.332.123,3.979,3.979,0,0,1-1.818.449c-2.917,0-5.279-3.306-5.279-7.383A9.375,9.375,0,0,1,360.576,213.177Z" transform="translate(-278.322 -173.835)" fill="#f2f2f2"/><path d="M390.89,247.888a7.809,7.809,0,0,1,4.523.492,6.664,6.664,0,0,0,5.439,0,7.617,7.617,0,0,1,6.389.123,3.956,3.956,0,0,0,1.838.461c2.591,0,4.743-2.608,5.193-6.049a4.992,4.992,0,0,1-1.308-1.408,7.284,7.284,0,0,0-12.993-.034,4.992,4.992,0,0,1-4.294,2.362h-.066C393.547,243.826,391.76,245.478,390.89,247.888Z" transform="translate(-300.75 -197.746)" opacity="0.03"/><path d="M1012.716,617.842l-3.52-1.9c1.027-1.9-.924-4.7-1.811-5.822-.175-.221-.352-.44-.539-.671-1.831-2.271-3.907-4.846-3.868-8.2v-.009a7.9,7.9,0,0,1,.934-3.588,10.831,10.831,0,0,1,2.121-2.741,31.527,31.527,0,0,1,5.3-3.822l.677-.421a37.415,37.415,0,0,0,6.9-5.541,8.988,8.988,0,0,0,1.838-2.411,10.424,10.424,0,0,0,.494-4.437c-.153-5.932-.451-11.943-.886-17.864l3.989-.293c.439,5.984.74,12.059.9,18.055a13.88,13.88,0,0,1-.844,6.18l0,.006a12.687,12.687,0,0,1-2.627,3.565,41.422,41.422,0,0,1-7.634,6.133l-.689.428a28.161,28.161,0,0,0-4.629,3.3,4.981,4.981,0,0,0-1.831,3.509c-.02,1.913,1.438,3.721,2.982,5.636.183.227.373.463.558.7C1013.478,611.361,1014.258,614.987,1012.716,617.842Z" transform="translate(-739.05 -428.12)" fill="#3f3d56"/><path d="M1056.667,543.553a6.538,6.538,0,0,0-3.272-5.365l-1.466,2.9.043-3.512a6.55,6.55,0,1,0,4.695,5.977Z" transform="translate(-766.598 -411.732)" fill="#7df8bb"/><path d="M1017.665,690.2a6.547,6.547,0,1,1,.318-5.276l-4.094,3.329,4.5-1.042a6.509,6.509,0,0,1-.727,2.988Z" transform="translate(-739.278 -514.044)" fill="#7df8bb"/><path d="M1020.079,636.919a6.55,6.55,0,0,1-2.078-12.85l-.034,2.7,1.483-2.937h.017a6.552,6.552,0,1,1,.613,13.089Z" transform="translate(-744.926 -473.481)" fill="#7df8bb"/><path d="M1075.637,599.953a6.552,6.552,0,1,1,2.894-12.26l-1.145,3.172,2.382-2.29a6.513,6.513,0,0,1,2.115,4.52,6.39,6.39,0,0,1-.163,1.818A6.552,6.552,0,0,1,1075.637,599.953Z" transform="translate(-784.583 -447.095)" fill="#7df8bb"/><path d="M1055.76,554.243c-1.511.166-2.983.635-4.5.73a4.887,4.887,0,0,1-4.142-1.448,19.637,19.637,0,0,1-1.214-2.133,4.657,4.657,0,0,0-1.649-1.552,6.553,6.553,0,1,0,12.246,4.34C1056.267,554.2,1056.006,554.217,1055.76,554.243Z" transform="translate(-766.572 -420.675)" opacity="0.1"/><path d="M1075.681,609.335a6.558,6.558,0,0,1-6.226-9.335,4.773,4.773,0,0,1,1.317,1.32,21.12,21.12,0,0,0,1.3,2.164,5.353,5.353,0,0,0,4.343,1.52c1.58-.072,3.106-.521,4.683-.664.218-.02.438-.034.658-.04A6.552,6.552,0,0,1,1075.681,609.335Z" transform="translate(-784.626 -456.477)" opacity="0.1"/><path d="M1020.066,646.573a6.55,6.55,0,0,1-6.3-9.223,5.336,5.336,0,0,1,1.385,1.331,20.369,20.369,0,0,0,1.431,2.21,6.057,6.057,0,0,0,4.637,1.623c1.623-.034,3.183-.432,4.8-.555A6.555,6.555,0,0,1,1020.066,646.573Z" transform="translate(-744.913 -483.135)" opacity="0.1"/><path d="M1017.647,700.674a18.547,18.547,0,1,0-10.511-4.065,25.645,25.645,0,0,0,1.755,2.327,8.215,8.215,0,0,0,5.439,1.909A28.434,28.434,0,0,0,1017.647,700.674Z" transform="translate(-739.26 -524.518)" opacity="0.1"/><path d="M991.36,740.765s5.17-.16,6.727-1.268,7.952-2.436,8.339-.656,7.769,8.848,1.932,8.9-13.563-.91-15.117-1.858S991.36,740.765,991.36,740.765Z" transform="translate(-729.33 -554.952)" fill="#656380"/><path d="M1008.464,754.071c-5.837.046-13.563-.91-15.117-1.858-1.185-.721-1.657-3.309-1.815-4.5h-.172s.326,4.168,1.881,5.115,9.281,1.9,15.117,1.858c1.686-.014,2.267-.613,2.236-1.5C1010.359,753.724,1009.718,754.059,1008.464,754.071Z" transform="translate(-729.33 -561.903)" opacity="0.2"/><path d="M900.215,662.735c-1.144-2.118-.613-4.756,1.5-7.426.13-.165.263-.33.4-.5.917-1.139,1.783-2.216,1.766-3.2-.023-1.478-2.076-2.749-3.887-3.871l-.454-.282a27.692,27.692,0,0,1-5.084-4.081,8.937,8.937,0,0,1-1.843-2.479l-.039-.082a9.738,9.738,0,0,1-.609-4.338c.1-3.924.3-7.9.577-11.826l3.99.286c-.277,3.862-.468,7.779-.568,11.645a6.485,6.485,0,0,0,.244,2.559,4.95,4.95,0,0,0,1.017,1.346l.061.06a23.69,23.69,0,0,0,4.374,3.516l.442.275a21.1,21.1,0,0,1,3.575,2.586,6.488,6.488,0,0,1,2.205,4.622c.04,2.427-1.451,4.28-2.65,5.77-.126.157-.252.313-.374.468-1,1.261-1.433,2.456-1.115,3.046Z" transform="translate(-659.8 -474.177)" fill="#3f3d56"/><path d="M880.547,613.852a4.271,4.271,0,0,1,2.13-3.5l.956,1.9-.029-2.29a4.28,4.28,0,1,1-3.057,3.893Z" transform="translate(-650.234 -463.458)" fill="#7df8bb"/><path d="M905.982,709.57a4.277,4.277,0,0,0,8.075-1.766,4.215,4.215,0,0,0-.286-1.735,4.28,4.28,0,0,0-8.015.046l2.674,2.176-2.94-.681A4.193,4.193,0,0,0,905.982,709.57Z" transform="translate(-668.041 -530.216)" fill="#7df8bb"/><path d="M904.431,674.838a4.294,4.294,0,0,0,4.474-4.073,4.194,4.194,0,0,0-.369-1.949,4.294,4.294,0,0,0-2.745-2.37l.02,1.763-.973-1.918h0a4.294,4.294,0,0,0-4.471,4.073,4.187,4.187,0,0,0,.183,1.46A4.294,4.294,0,0,0,904.431,674.838Z" transform="translate(-664.38 -503.788)" fill="#7df8bb"/><path d="M868.143,650.7a4.274,4.274,0,1,0-1.892-8.007l.756,2.073-1.554-1.494a4.28,4.28,0,0,0,2.691,7.428Z" transform="translate(-638.474 -486.568)" fill="#7df8bb"/><path d="M881.371,620.827c.985.109,1.947.415,2.937.478a3.191,3.191,0,0,0,2.705-.948,13.556,13.556,0,0,0,.793-1.391,3.077,3.077,0,0,1,1.076-1.016,4.277,4.277,0,1,1-7.992,2.84C881.047,620.8,881.208,620.827,881.371,620.827Z" transform="translate(-650.483 -469.288)" opacity="0.1"/><path d="M868.4,656.783a4.294,4.294,0,0,0,4.474-4.073,4.235,4.235,0,0,0-.406-2.03,3.148,3.148,0,0,0-.859.859,12.752,12.752,0,0,1-.859,1.414,3.5,3.5,0,0,1-2.837.99c-1.031-.049-2.03-.338-3.06-.432-.14-.014-.286-.023-.429-.026A4.277,4.277,0,0,0,868.4,656.783Z" transform="translate(-638.727 -492.649)" opacity="0.1"/><path d="M904.887,681.143a4.294,4.294,0,0,0,4.474-4.073,4.193,4.193,0,0,0-.369-1.949,3.433,3.433,0,0,0-.9.859,13.313,13.313,0,0,1-.927,1.431,3.957,3.957,0,0,1-3.029,1.062c-1.094-.026-2.078-.286-3.132-.364A4.294,4.294,0,0,0,904.887,681.143Z" transform="translate(-664.836 -510.093)" opacity="0.1"/><path d="M907.21,716.441a4.277,4.277,0,0,0,8.075-1.766A4.214,4.214,0,0,0,915,712.94a4.269,4.269,0,0,0-.939.839,17.431,17.431,0,0,1-1.145,1.52,5.375,5.375,0,0,1-3.544,1.245A18.142,18.142,0,0,1,907.21,716.441Z" transform="translate(-669.268 -537.086)" opacity="0.1"/><path d="M913.228,742.659s-3.378-.106-4.394-.83-5.2-1.589-5.439-.427-5.073,5.78-1.262,5.808,8.857-.593,9.873-1.211S913.228,742.659,913.228,742.659Z" transform="translate(-664.603 -556.996)" fill="#656380"/><path d="M902.029,751.344c3.813.031,8.874-.593,9.873-1.211.776-.472,1.082-2.164,1.185-2.943h.115s-.215,2.722-1.231,3.341-6.06,1.242-9.873,1.211c-1.1,0-1.48-.4-1.46-.979C900.793,751.117,901.211,751.338,902.029,751.344Z" transform="translate(-664.577 -561.532)" opacity="0.2"/><path d="M513.914,608.035c6.512-1.2,6.541-10.695,6.541-10.695-.286,1.357-.953,1.489-4.345,2.576s-5.439,4.594-5.439,4.594c-10.136-11.556-18.85,1.028-18.85,1.028a12.023,12.023,0,0,0,6.066,4.7c-.4.979-.824,2.344-.326,2.845.573.572,2.138-1.188,2.98-2.244.252.029.5.054.756.072.484.97,1.683,3.521,1.68,5.035,0,0,2.765-.212,2.416-5.253a20.861,20.861,0,0,0,5.087-1.514s-.286,7.864,2,8.276,4.534,3.2,4.534,3.2C520.417,614.02,513.914,608.035,513.914,608.035Z" transform="translate(-372.788 -454.578)" fill="#fe7d1e" opacity="0.6"/><path d="M661.732,550.373c6.492,1.3,10.039-7.506,10.039-7.506-.759,1.145-1.431,1.028-4.99.77s-6.753,2.239-6.753,2.239c-5.127-14.479-17.888-6.011-17.888-6.011a12.023,12.023,0,0,0,3.893,6.613c-.736.761-1.635,1.872-1.357,2.519.321.759,2.425-.309,3.6-.979.223.123.449.238.676.346.089,1.082.258,3.9-.306,5.3,0,0,2.648.827,4.191-3.985a20.762,20.762,0,0,0,5.259.481s-3.189,7.194-1.2,8.433,3.023,4.652,3.023,4.652C665.539,558.337,661.732,550.373,661.732,550.373Z" transform="translate(-480.077 -411.799)" fill="#fe7d1e" opacity="0.6"/><path d="M192.846,301.354l.017-.026-.066-.043-.135-.094.026.023a.555.555,0,0,0-.727.14l-.08.117h0l-3.893,5.608-.681.979c-2.05-.615-5.376,1.984-7.062,3.472l-.286.263c-.135-.3-.212-.492-.212-.492-.083.916-3.312,2.29-4.068,2.785a2.74,2.74,0,0,1-1.125.381c.109-3.481-2.576-7.142-2.576-7.142l-6.581-8.382a7.383,7.383,0,0,1,.673-4.437c.052-.109.109-.218.169-.323h.323a9.191,9.191,0,0,0,1.6-.143,8.76,8.76,0,0,0,7.2-8.075,1.435,1.435,0,0,0,1.131-1.491,1.146,1.146,0,0,0,0-.406h0a1.48,1.48,0,0,0-.077-.249h0a7.587,7.587,0,0,0-.879-1.294,4.007,4.007,0,0,1-.624-2.13,8.487,8.487,0,0,1,.306-1.952,3.283,3.283,0,0,0,.186-1.179v-.08a1.948,1.948,0,0,0-.014-.315,1.446,1.446,0,0,0-.052-.22h0a2.11,2.11,0,0,0-.882-1.073c-1.039-.678-2.373-.687-3.541-1.114-1.695-.621-3.229-2.156-5-1.783a8.318,8.318,0,0,0-2.548,1.466,6.149,6.149,0,0,1-3.074.933,21.38,21.38,0,0,0-2.742,0,3.065,3.065,0,0,0-.475.129,7.089,7.089,0,0,0-2.382-.375,4.008,4.008,0,0,0-2.247.618c-1.217.859-1.543,2.5-1.523,3.979v.321c0,.707.069,1.431.08,2.133a6.384,6.384,0,0,1-.266,1.947c-.573,1.749-2.167,3.086-2.49,4.9a4.365,4.365,0,0,0-.054.945,9.921,9.921,0,0,0,.61,3.046,22.288,22.288,0,0,1,1.128,6.364,10.46,10.46,0,0,1-.776,3.856,5.835,5.835,0,0,1-.55,1.019,2.929,2.929,0,0,1-.226.286l-.034.037c-.069.08-.143.155-.218.229l-.063.057a2.294,2.294,0,0,1-.226.177l-.074.057a2.273,2.273,0,0,1-.326.183l.558-.031a2.463,2.463,0,0,1-.558.355l2.954-.172a.237.237,0,0,0,.014.1,1.394,1.394,0,0,1-.043.218,1.716,1.716,0,0,1-.072.2.086.086,0,0,0,0,.029,1.763,1.763,0,0,1-.229.369l-.023.029a1.934,1.934,0,0,1-.149.157h0a1.415,1.415,0,0,1-.16.126l-.037.026a1.678,1.678,0,0,1-.183.106h0a1.829,1.829,0,0,1-.189.069l-.049.014a1.322,1.322,0,0,1-.206.043l.286-.034c.186-.023.372-.046.555-.077h.054a1.48,1.48,0,0,1-.887.441,8.039,8.039,0,0,0,1.869-.366c.386,2.576,1.24,10.457.77,11.911-.544,1.569.744,12.922.744,12.922s.175.859.481,2.17c-.79,1.864-1.692,3.93-2.144,4.758-.91,1.663-.461,10.142,2.668,13.912,0,0,1.3,1.826.956,2.493a2.944,2.944,0,0,0,.057,1.829l.5,10.972a28.6,28.6,0,0,1-.223,3.369c-1.334,1.655-3.4,4.068-4.365,4.463-1.5.607-12.678,14.187-12.678,14.187s.089.163.263.429l-.315.364-2.147,2.488-.169.2a51.7,51.7,0,0,0-5.21-.719h-.209v-.04a8.087,8.087,0,0,0-2.244.06h-.017a.741.741,0,0,0-.369.195c-.724.887-1.116,14.854-1.116,14.854s.773,6.976,3.177,7.38a1.341,1.341,0,0,0,.386.072h.026a.708.708,0,0,0,.135,0,3.308,3.308,0,0,0,2.863-1.795,2.978,2.978,0,0,0,.24-.644,5.11,5.11,0,0,1,.475-2.966c.761-1.718,2.153-4.712,2.153-4.712s2.553-2.688,2.1-3.993l.246-.355c.962-1.368,2.9-4.071,4.469-5.877l.309-.346a7.829,7.829,0,0,0,1.781.518,6.515,6.515,0,0,0,3.3-3.049,18.1,18.1,0,0,1,3.461-4.008c-.034.263-.052.409-.052.409l-.054,13.354a9.512,9.512,0,0,0,1.643.907c0,.106,0,.218,0,.329a42.754,42.754,0,0,1-.344,5.7c-.014.1-.031.2-.049.286-.2-.14-.369-.189-.478-.077-.492.5-.8,3.684-.827,5.153v.083h0c-.034.61-.2,1.331-.2,1.978-.014.939.286,1.718,1.795,1.792,1.884.08,9.985.2,14.313.266a9.6,9.6,0,0,0,6.4-2.27,3.441,3.441,0,0,0,1.431-2.153c.04-.547-.258-1.073-1.085-1.529a.072.072,0,0,1-.017.054c-.109-.06-.226-.117-.355-.175l-4.165-.653-7.1-3.63s-.043-2.193-.9-1.829a2.4,2.4,0,0,0-.719.286c-.043-.08-.086-.166-.129-.255a8.247,8.247,0,0,1-.876-3.7,2.479,2.479,0,0,1,.017-.355,6.206,6.206,0,0,0,.587-.6s-.054-4.987.5-5.931,2.29-10.474,2.29-10.474a4.538,4.538,0,0,1,1.174-2.825c1.116-1.053.727-4.1.727-4.1a4.933,4.933,0,0,0,2.07-3.547c.5-2.717,2.124-8.645,2.124-8.645s3.355-8.757,3.132-14.3a40.663,40.663,0,0,1,.335-8.425l.7-12.882v-.2a5.05,5.05,0,0,1,.464.384v-.14l.16.14s.355-5.843.235-8.161c1.958-.664,4.935-1.758,5.1-2.313.252-.83,3.6-3.449,3.6-3.449a.667.667,0,0,1-.2-.077c.106-.049.215-.106.332-.169,2.2-1.177,6.283-4.62,5.6-6.724l4.466-6.427A1.091,1.091,0,0,0,192.846,301.354Zm-36.381-6.26a3.2,3.2,0,0,0-.326.026,24.933,24.933,0,0,0-.819-3.386,22.539,22.539,0,0,1-1.159-5.3v-.238a6.694,6.694,0,0,1,.186-1.414c.109.2.226.392.349.573a16.492,16.492,0,0,1,1.99,3.321,9.472,9.472,0,0,0,.621,1.675,1.574,1.574,0,0,0,1.466.859,1.145,1.145,0,0,0,.552-.255,23.338,23.338,0,0,1-2.86,4.145Z" transform="translate(-111.808 -222.812)" fill="url(#a)"/><path d="M312.627,409.329a2.862,2.862,0,0,1-1.056.4c-1.377.04-2.51-3.687-2.51-3.687s.392-.4,1.016-.95c1.844-1.643,5.725-4.672,7.529-2.977C319.634,404.016,314.994,408.046,312.627,409.329Z" transform="translate(-242.344 -314.881)" fill="#ecb4b6"/><path d="M226.087,719.43l-5.075,5.47s-4.7.052-3.779-2.539a9.5,9.5,0,0,0,.389-1.718,41.943,41.943,0,0,0,.332-5.548c0-1.217-.02-2.07-.02-2.07s7.4-3.24,6.641.135a6.317,6.317,0,0,0-.152,1.285,8.073,8.073,0,0,0,.844,3.6A8.177,8.177,0,0,0,226.087,719.43Z" transform="translate(-176.719 -536.148)" fill="#ecb4b6"/><path d="M226.087,735.45l-5.075,5.47s-4.7.052-3.779-2.539a9.5,9.5,0,0,0,.389-1.718,10.835,10.835,0,0,1,1.635,2.047s3.24.945,4.131-1.889a4.805,4.805,0,0,1,1.881-2.751A8.182,8.182,0,0,0,226.087,735.45Z" transform="translate(-176.719 -552.168)" opacity="0.1"/><path d="M235.381,743.555a9.26,9.26,0,0,1-6.186,2.21c-4.185-.063-12.023-.183-13.829-.26-2.427-.1-1.623-2.178-1.543-3.61v-.143c.026-1.431.323-4.534.8-5.021s2.144,2.158,2.144,2.158,3.24.948,4.131-1.889,2.705-3.1,2.705-3.1c.824-.358.859,1.781.859,1.781l6.87,3.535,4.025.635c.129.06.249.12.358.177C237.517,741.033,236.713,742.4,235.381,743.555Z" transform="translate(-174.234 -552.017)" fill="#7df8bb"/><circle cx="0.298" cy="0.298" r="0.298" transform="translate(48.18 185.498)" fill="#fff" opacity="0.25"/><circle cx="0.298" cy="0.298" r="0.298" transform="translate(50.96 186.875)" fill="#fff" opacity="0.25"/><circle cx="0.298" cy="0.298" r="0.298" transform="translate(52.391 187.516)" fill="#fff" opacity="0.25"/><circle cx="0.298" cy="0.298" r="0.298" transform="translate(55.363 188.655)" fill="#fff" opacity="0.25"/><circle cx="0.298" cy="0.298" r="0.298" transform="translate(53.851 188.168)" fill="#fff" opacity="0.25"/><path d="M235.381,758.93a9.261,9.261,0,0,1-6.186,2.21c-4.185-.063-12.023-.183-13.829-.26-2.427-.1-1.623-2.178-1.543-3.61l15.26.942s6.249-.948,6.621-2.811C237.517,756.408,236.713,757.776,235.381,758.93Z" transform="translate(-174.234 -567.392)" fill="#7df8bb"/><path d="M235.382,758.717a9.232,9.232,0,0,1-6.186,2.21c-4.185-.06-12.023-.18-13.826-.258-2.43-.106-1.626-2.181-1.546-3.613l15.26.942s6.249-.948,6.621-2.808C237.517,756.2,236.713,757.566,235.382,758.717Z" transform="translate(-174.234 -567.242)" fill="#fff" opacity="0.25"/><path d="M163.908,681.783a10.307,10.307,0,0,0-1.531,1.534c-1.514,1.76-3.386,4.394-4.317,5.725l-.573.842-2.03-.312s-2.187-3.346-2.158-3.435,1.718-3.673,1.718-3.673l.658-.77,2.073-2.425.939-1.1S165.746,680.46,163.908,681.783Z" transform="translate(-131.171 -512.27)" fill="#ecb4b6"/><path d="M158.06,697.828l-.573.842-2.03-.312s-2.187-3.346-2.158-3.435,1.718-3.673,1.718-3.673l.658-.77.215.037h.515c-1.812,1.889.135,6.049.135,6.049A2.292,2.292,0,0,1,158.06,697.828Z" transform="translate(-131.171 -521.056)" opacity="0.1"/><path d="M139.788,700.733s-1.351,2.917-2.081,4.58a5.064,5.064,0,0,0-.458,2.888,2.657,2.657,0,0,1-.232.627,3.177,3.177,0,0,1-2.765,1.749.986.986,0,0,1-.129,0c-2.462-.066-3.243-7.211-3.243-7.211s.375-13.609,1.076-14.473a.7.7,0,0,1,.358-.189,7.476,7.476,0,0,1,2.17-.057c2.227.16,5.087.707,5.087.707h.515c-1.812,1.889.132,6.046.132,6.046a2.255,2.255,0,0,1,1.54,1.3C142.439,697.911,139.788,700.733,139.788,700.733Z" transform="translate(-115.17 -519.71)" fill="#7df8bb"/><circle cx="0.298" cy="0.298" r="0.298" transform="translate(21.355 176.667)" fill="#fff" opacity="0.25"/><circle cx="0.298" cy="0.298" r="0.298" transform="translate(21.209 179.025)" fill="#fff" opacity="0.25"/><path d="M136.33,708.637a3.183,3.183,0,0,1-2.765,1.752h-.129c-2.462-.06-3.246-7.217-3.246-7.217s.378-13.606,1.079-14.47a.678.678,0,0,1,.358-.192,7.669,7.669,0,0,1,2.167-.057c-.04,2.445-.157,10.177.014,10.944S135.351,706.582,136.33,708.637Z" transform="translate(-114.678 -519.573)" fill="#7df8bb"/><path d="M136.95,708.819a3.18,3.18,0,0,1-2.765,1.749.986.986,0,0,1-.129,0c-2.465-.066-3.246-7.211-3.246-7.211s.378-13.609,1.079-14.473a.679.679,0,0,1,.355-.189,7.484,7.484,0,0,1,2.17-.057c-.04,2.445-.157,10.177,0,10.944S135.968,706.761,136.95,708.819Z" transform="translate(-115.12 -519.703)" fill="#fff" opacity="0.25"/><path d="M133.436,710.659c-2.462-.06-3.246-7.217-3.246-7.217s.378-13.606,1.079-14.47a.678.678,0,0,1,.358-.192c.515.77.968,2.47.573,6.212-.77,7.088.157,7.531.157,7.531A64.651,64.651,0,0,1,133.436,710.659Z" transform="translate(-114.678 -519.843)" fill="#7df8bb"/><path d="M133.366,710.659c-2.462-.06-3.246-7.217-3.246-7.217s.378-13.606,1.079-14.47a.678.678,0,0,1,.358-.192c.515.77.968,2.47.573,6.212-.77,7.088.157,7.531.157,7.531A65.2,65.2,0,0,1,133.366,710.659Z" transform="translate(-114.628 -519.843)" opacity="0.1"/><path d="M312.627,418a2.864,2.864,0,0,1-1.056.4c-1.377.04-2.51-3.687-2.51-3.687s.392-.4,1.016-.95C310.514,414.776,311.757,417.493,312.627,418Z" transform="translate(-242.344 -323.55)" opacity="0.1"/><path d="M287.337,416.1a3.458,3.458,0,0,0,1.864-.406c.719-.487,3.847-1.823,3.927-2.714,0,0,1.864,4.537,2.917,4.7,0,0-3.24,2.553-3.484,3.364S286,423.835,286,423.835Z" transform="translate(-225.886 -322.993)" fill="#ff748e"/><path d="M287.337,416.1a3.458,3.458,0,0,0,1.864-.406c.719-.487,3.847-1.823,3.927-2.714,0,0,1.864,4.537,2.917,4.7,0,0-3.24,2.553-3.484,3.364S286,423.835,286,423.835Z" transform="translate(-225.886 -322.993)" fill="#7df8bb"/><path d="M175.029,681.833a10.306,10.306,0,0,0-1.532,1.534,11.022,11.022,0,0,1-4.617-4.028l.939-1.1S176.867,680.51,175.029,681.833Z" transform="translate(-142.292 -512.32)" opacity="0.1"/><path d="M186.706,610.53s-3.962,5.29-5.41,5.885-12.246,13.823-12.246,13.823,2.322,4.265,6.584,4.967a6.312,6.312,0,0,0,3.186-2.969c.865-2.05,7.677-7.832,7.677-7.832Z" transform="translate(-142.414 -463.992)" fill="#5e5a6b"/><path d="M186.706,610.53s-3.962,5.29-5.41,5.885-12.246,13.823-12.246,13.823,2.322,4.265,6.584,4.967a6.312,6.312,0,0,0,3.186-2.969c.865-2.05,7.677-7.832,7.677-7.832Z" transform="translate(-142.414 -463.992)" opacity="0.1"/><path d="M188.81,672.386a17.108,17.108,0,0,0,3.6,0C194.561,672.186,192.941,673.48,188.81,672.386Z" transform="translate(-156.517 -508.126)" opacity="0.1"/><path d="M185.41,677.25s2.837,1.62,3.93.81S188.284,678.842,185.41,677.25Z" transform="translate(-154.09 -511.613)" opacity="0.1"/><path d="M226.621,713.174a6.317,6.317,0,0,0-.152,1.285c-2.19,1.987-4.823,1.371-6.469.65,0-1.217-.02-2.07-.02-2.07S227.377,709.8,226.621,713.174Z" transform="translate(-178.764 -536.158)" opacity="0.1"/><path d="M233.88,469.905,233.8,471.4l-.667,12.55a39.794,39.794,0,0,0-.323,8.21c.218,5.4-3.026,13.929-3.026,13.929s-1.566,5.78-2.052,8.425a4.807,4.807,0,0,1-2,3.455s.378,2.971-.7,4.008a4.505,4.505,0,0,0-1.145,2.754s-1.675,9.286-2.213,10.205-.487,5.78-.487,5.78c-3.51,4.156-8.639.378-8.639.378l.054-13.013s1.457-11.989,2.536-13.663,1.079-6.263,1.079-6.263l-.478-10.692a2.9,2.9,0,0,1-.054-1.781c.329-.635-.925-2.43-.925-2.43-3.023-3.673-3.455-11.934-2.576-13.554s3.5-8.1,3.5-8.1l3.613-2.107,6.527.195Z" transform="translate(-172.907 -363.326)" fill="#5e5a6b"/><path d="M235.35,693.24s.859,2.957,1.543,3.281S235.35,693.24,235.35,693.24Z" transform="translate(-189.735 -523.026)" opacity="0.1"/><path d="M239.46,658.86s2.213,1.746,3.149,1.743S239.46,658.86,239.46,658.86Z" transform="translate(-192.668 -498.487)" opacity="0.1"/><path d="M242.8,351.233v3.578l-2.353-1.013-2.344-1.01-5.1-5.021a38.8,38.8,0,0,1-6.2-5.015c-1.234-1.363-1.855-2.651-.767-3.329a6.8,6.8,0,0,0,1.411-1.24,23.048,23.048,0,0,0,2.817-4.154l.1-.183c1.051-1.927,1.746-3.575,1.746-3.575a21.705,21.705,0,0,1,4.866,2.29c.155.106.3.218.438.329,1.062.873,1.589,1.881.613,2.885a7.046,7.046,0,0,0-.7.833h0a6.941,6.941,0,0,0-.432.684c-.06.1-.114.209-.166.315a7.245,7.245,0,0,0-.647,4.323Z" transform="translate(-182.682 -263.959)" fill="#ecb4b6"/><path d="M249.961,335.735a7.043,7.043,0,0,0-.7.833h0a6.937,6.937,0,0,0-.432.684c-.06.1-.115.209-.166.315a8.479,8.479,0,0,1-6.364-3.435c-.034-.049-.069-.094-.1-.143l.1-.183c1.051-1.927,1.746-3.575,1.746-3.575a21.707,21.707,0,0,1,4.866,2.29c.155.106.3.218.438.329C250.41,333.722,250.937,334.744,249.961,335.735Z" transform="translate(-194.624 -263.931)" opacity="0.1"/><path d="M253.707,303.864a8.5,8.5,0,0,1-8.5,8.5h-.323a8.508,8.508,0,1,1,8.817-8.5Z" transform="translate(-190.684 -239.042)" fill="#ecb4b6"/><path d="M262.567,378.872s4.294,2.419,3.186.378L260.18,371h0l6.344,8.156s4.051,5.562,1.838,9.4c0,0-.323,3.186.054,3.942s-.109,8.8-.109,8.8-1.511-1.406-2.322-1.145-6.535.756-6.535.756Z" transform="translate(-206.936 -293.03)" opacity="0.1"/><path d="M268.3,470.348l-.083,1.494c-.512-.372-1.225-.79-1.7-.63-.793.269-6.518.756-6.518.756l.263-1.858Z" transform="translate(-207.328 -363.769)" opacity="0.1"/><path d="M263.123,378.872s4.294,2.419,3.186.378L260.721,371h0l6.344,8.156s4.051,5.562,1.835,9.4c0,0-.323,3.186.054,3.942s-.109,8.8-.109,8.8-1.511-1.406-2.322-1.145-6.524.756-6.524.756Z" transform="translate(-207.328 -293.03)" fill="#464353"/><path d="M232.865,374.037a29.646,29.646,0,0,1-1.32,5.682s-.753,7.669-1.718,9.939-.541,5.4-1.079,11.164a7.274,7.274,0,0,1-1.769,4.474,6.6,6.6,0,0,1-5.287,1.821l-.4-.031c-2.7-.269-5.29-13.282-5.29-13.282s-1.242-11.07-.756-12.581-.487-10.154-.81-12.043a10.465,10.465,0,0,1,.893-4.428c.286-.733.51-1.242.51-1.242a13.039,13.039,0,0,1,2.43-4.426,2.224,2.224,0,0,1,1.6-.673,3.973,3.973,0,0,1,2,.627l.069.046s9.827,10.042,10.743,12.364A6.148,6.148,0,0,1,232.865,374.037Z" transform="translate(-174.78 -284.044)" opacity="0.1"/><path d="M231.735,373.44a29.639,29.639,0,0,1-1.32,5.685s-.756,7.669-1.718,9.936-.541,5.4-1.082,11.164a7.272,7.272,0,0,1-1.769,4.474,6.59,6.59,0,0,1-5.284,1.818,3.6,3.6,0,0,1-.4-.031c-2.7-.269-5.29-13.282-5.29-13.282s-1.242-11.07-.756-12.581-.487-10.151-.81-12.043a10.443,10.443,0,0,1,.893-4.426c.286-.736.51-1.242.51-1.242a13.042,13.042,0,0,1,2.43-4.428,2.224,2.224,0,0,1,1.6-.673,4.008,4.008,0,0,1,2,.627l.072.046s9.827,10.045,10.743,12.366A6.309,6.309,0,0,1,231.735,373.44Z" transform="translate(-173.974 -283.616)" fill="#7df8bb"/><path d="M231.578,550.49s-2.227,1.987-3,1.9S231.578,550.49,231.578,550.49Z" transform="translate(-184.829 -421.139)" opacity="0.1"/><path d="M233.5,557.072a30.464,30.464,0,0,1-3.049,1.254C229.754,558.489,232.6,556.791,233.5,557.072Z" transform="translate(-186.163 -425.815)" opacity="0.1"/><path d="M273.13,452.877s3.481.04,4.008,1.145S274.264,452.436,273.13,452.877Z" transform="translate(-216.7 -351.434)" opacity="0.1"/><path d="M271.43,459.67a12.881,12.881,0,0,1,3.481,1.214C275.718,461.525,271.43,459.67,271.43,459.67Z" transform="translate(-215.486 -356.317)" opacity="0.1"/><path d="M251.181,436.61s-.323,10.99-1.52,12.392S251.181,436.61,251.181,436.61Z" transform="translate(-199.732 -339.858)" opacity="0.1"/><path d="M243.881,543.18s-2.224,9.678,2.247,10.285,3.1-11.015,3.1-11.015Z" transform="translate(-195.428 -415.401)" opacity="0.1"/><path d="M243.312,542.59s-2.224,9.678,2.25,10.288,3.094-11.018,3.094-11.018Z" transform="translate(-195.022 -414.98)" fill="#ecb4b6"/><path d="M230.32,389.844a5.284,5.284,0,0,0-10.268-1.517l-.04.112c-1.24,3.721-.7,13.168-.7,13.168s.163,6.335.756,8.439,2.267,8.156,2.267,9.126,1.552,4.7,2.207,4.969.985,2.376,1.145,2.754.644,5.29.644,5.29,6.1-.378,6.212-1.348-1.351-5.725-1.351-5.725a10.981,10.981,0,0,1-1.214-3.51c-.137-1.566-1-2.267-.839-3.346s-.487-1.62-.487-2.324a17.241,17.241,0,0,0-.484-2.591s-1.028-.81-.859-1.781-1.457-2.917-1.025-3.618a7.275,7.275,0,0,0,.538-2.43s.535-7.786.9-9.89,2.576-5.508,2.576-5.508A1.131,1.131,0,0,0,230.32,389.844Z" transform="translate(-178.203 -302.865)" opacity="0.1"/><path d="M228.452,423.562a6.59,6.59,0,0,1-5.284,1.818c-.192-.736-.475-1.64-.89-1.812-.656-.269-2.207-4.008-2.207-4.967s-1.675-7.022-2.267-9.126-.756-8.43-.756-8.43-.541-9.447.7-13.168c.014-.037.026-.074.037-.115a5.286,5.286,0,0,1,10.271,1.52v.266s-2.216,3.4-2.576,5.508-.919,9.882-.919,9.882a7.356,7.356,0,0,1-.541,2.43c-.432.713,1.188,2.648,1.028,3.618a2.222,2.222,0,0,0,.859,1.783,17.15,17.15,0,0,1,.487,2.591c0,.7.647,1.242.487,2.322s.7,1.781.839,3.349a8.782,8.782,0,0,0,.733,2.531Z" transform="translate(-176.588 -302.464)" opacity="0.1"/><path d="M229.187,389.281a5.286,5.286,0,0,0-10.271-1.517.342.342,0,0,1-.037.112c-1.242,3.721-.7,13.168-.7,13.168s.163,6.332.756,8.439,2.259,8.144,2.259,9.117,1.552,4.7,2.207,4.967.985,2.376,1.145,2.754.656,5.293.656,5.293,6.1-.378,6.209-1.351-1.348-5.725-1.348-5.725a10.98,10.98,0,0,1-1.214-3.51c-.137-1.566-1-2.27-.839-3.349s-.487-1.62-.487-2.322a17.374,17.374,0,0,0-.484-2.594s-1.028-.81-.859-1.781-1.46-2.917-1.028-3.618a7.3,7.3,0,0,0,.541-2.43s.541-7.775.919-9.882,2.576-5.508,2.576-5.508A.883.883,0,0,0,229.187,389.281Z" transform="translate(-177.394 -302.463)" fill="#7df8bb"/><path d="M221.91,447.643c.163-.163,3.24-3.564,4.214-2.347S221.91,447.643,221.91,447.643Z" transform="translate(-180.142 -345.871)" opacity="0.1"/><path d="M222.9,457.5c.123-.123,3.077-.243,3.807-1.9S222.9,457.5,222.9,457.5Z" transform="translate(-180.849 -353.098)" opacity="0.1"/><g transform="translate(38.069 59.793)" opacity="0.1"><path d="M209.6,355.753a.833.833,0,0,1,.163.286,1.268,1.268,0,0,0-.163-1.1c-.143-.163-.355-.263-.484-.438,0-.014-.017-.031-.029-.046a.859.859,0,0,0,.029.859C209.245,355.5,209.457,355.6,209.6,355.753Z" transform="translate(-208.986 -341.01)"/><path d="M224.743,311.754c0-.306.014-.613,0-.916-.054-1.1-.26-2.233-.306-3.338-.066,1.354.238,2.774.306,4.148Z" transform="translate(-220.007 -307.5)"/></g><path d="M325.333,390.566l.166.115a.667.667,0,0,1-.172-.927l7.506-10.9a.67.67,0,0,1,.93-.172l-.169-.115a1.073,1.073,0,0,1,.286,1.491l-7.048,10.228a1.068,1.068,0,0,1-1.5.275Z" transform="translate(-253.871 -298.432)" fill="#464353"/><path d="M.49,0H.7V14.565H.5a.5.5,0,0,1-.5-.5V.5A.5.5,0,0,1,.49,0Z" transform="translate(79.356 79.881) rotate(34.56)" fill="#9f9eff"/><rect width="0.134" height="1.186" rx="0.067" transform="matrix(0.821, 0.571, -0.571, 0.821, 78.153, 81.667)" fill="#464353"/><path d="M229.969,293.618a4.8,4.8,0,0,0-.922-1.5,5.317,5.317,0,0,1-.306-4.294,3.063,3.063,0,0,0,.172-1.217,1.918,1.918,0,0,0-.9-1.262c-1-.661-2.29-.67-3.418-1.085-1.637-.607-3.12-2.1-4.829-1.738a8.105,8.105,0,0,0-2.459,1.431,5.911,5.911,0,0,1-2.969.91,19.5,19.5,0,0,0-2.651,0,2.363,2.363,0,0,0-.458.126,6.767,6.767,0,0,0-2.29-.369,3.885,3.885,0,0,0-2.17.6c-1.177.83-1.489,2.436-1.471,3.876a13.458,13.458,0,0,1-.18,4.294c-.547,1.718-2.093,3.006-2.4,4.769a7.8,7.8,0,0,0,.535,3.573c1.013,3.346,1.683,7.045.338,10.274a3.664,3.664,0,0,1-1.657,2l2.863-.166a1.554,1.554,0,0,1-1.3,1.766,6.627,6.627,0,0,0,2.1-.478,2.241,2.241,0,0,0,1.32-1.6,8.71,8.71,0,0,1,.08-1.162c.186-.641.859-1,1.377-1.406a6.13,6.13,0,0,0,2.107-4.68,16.709,16.709,0,0,0-.916-5.2,22,22,0,0,1-1.119-5.153,6.71,6.71,0,0,1,.177-1.924c.1.192.218.381.335.558a16.007,16.007,0,0,1,1.921,3.238,9.086,9.086,0,0,0,.6,1.629,1.492,1.492,0,0,0,1.417.827,1.774,1.774,0,0,0,1.194-1.3,6.09,6.09,0,0,1,.63-1.738c.681-.95,2.041-1.036,3.209-1,2.462.077,5.857.452,7.783-1.431.366-.358.541-.907,1.114-.773.512.12.8.953,1.345,1.145A1.446,1.446,0,0,0,229.969,293.618Z" transform="translate(-165.881 -229.838)" opacity="0.1"/><path d="M229.969,292.518a4.8,4.8,0,0,0-.922-1.5,5.317,5.317,0,0,1-.306-4.294,3.063,3.063,0,0,0,.172-1.217,1.918,1.918,0,0,0-.9-1.262c-1-.661-2.29-.67-3.418-1.085-1.637-.607-3.12-2.1-4.829-1.738a8.1,8.1,0,0,0-2.459,1.431,5.911,5.911,0,0,1-2.969.91,19.5,19.5,0,0,0-2.651,0,2.363,2.363,0,0,0-.458.126,6.767,6.767,0,0,0-2.29-.369,3.885,3.885,0,0,0-2.17.6c-1.177.83-1.489,2.436-1.471,3.876a13.459,13.459,0,0,1-.18,4.294c-.547,1.7-2.093,3.006-2.4,4.769a7.8,7.8,0,0,0,.535,3.573c1.013,3.346,1.683,7.045.338,10.274a3.664,3.664,0,0,1-1.657,2l2.863-.169a1.554,1.554,0,0,1-1.3,1.766,6.628,6.628,0,0,0,2.1-.478,2.241,2.241,0,0,0,1.32-1.6,8.712,8.712,0,0,1,.08-1.162c.186-.641.859-1,1.377-1.406a6.13,6.13,0,0,0,2.107-4.68,16.709,16.709,0,0,0-.916-5.2,21.961,21.961,0,0,1-1.119-5.167,6.71,6.71,0,0,1,.177-1.924c.1.192.218.381.335.573a16.007,16.007,0,0,1,1.921,3.238,9.084,9.084,0,0,0,.6,1.629,1.492,1.492,0,0,0,1.417.827,1.775,1.775,0,0,0,1.194-1.3,6.09,6.09,0,0,1,.63-1.738c.681-.95,2.041-1.036,3.209-1,2.462.077,5.857.452,7.783-1.431.366-.358.541-.907,1.114-.773.512.12.8.953,1.345,1.145A1.443,1.443,0,0,0,229.969,292.518Z" transform="translate(-165.881 -229.053)" fill="#464353"/><g transform="translate(36.046 56.237)" opacity="0.1"><path d="M213.674,302.62c0,.186-.014.375,0,.558,0,.6.052,1.208.072,1.812C213.763,304.209,213.7,303.41,213.674,302.62Z" transform="translate(-210.305 -300.462)"/><path d="M206.1,346.139a21.106,21.106,0,0,0-1.082-6.673,12.75,12.75,0,0,1-.573-2.376,8.414,8.414,0,0,0,.573,3.321,22.984,22.984,0,0,1,1.082,5.728Z" transform="translate(-203.702 -325.064)"/><path d="M294.579,298.08a8.5,8.5,0,0,1,.286-1.569,3.063,3.063,0,0,0,.172-1.217,1.307,1.307,0,0,0-.052-.215c-.034.163-.077.326-.12.49A7.4,7.4,0,0,0,294.579,298.08Z" transform="translate(-268.046 -295.08)"/><path d="M204.765,387.69l-1.718.1a2.863,2.863,0,0,1-1.128,1.013l2.691-.16A1.431,1.431,0,0,0,204.765,387.69Z" transform="translate(-201.92 -361.18)"/><path d="M246.038,318.615a1.491,1.491,0,0,1-1.755.819c-.547-.186-.833-1.019-1.345-1.145-.573-.135-.747.415-1.114.773-1.927,1.892-5.322,1.517-7.783,1.431-1.168-.034-2.528.052-3.209,1a6.145,6.145,0,0,0-.63,1.738,1.706,1.706,0,0,1-1.194,1.3,1.449,1.449,0,0,1-1.417-.827,9.084,9.084,0,0,1-.6-1.629,16.008,16.008,0,0,0-1.921-3.238c-.117-.177-.232-.366-.335-.558a6.71,6.71,0,0,0-.177,1.924q0,.069,0,.137a6.036,6.036,0,0,1,.166-1.116c.1.192.218.381.335.573a16.006,16.006,0,0,1,1.921,3.238,9.085,9.085,0,0,0,.6,1.629,1.492,1.492,0,0,0,1.417.827,1.775,1.775,0,0,0,1.194-1.3,6.09,6.09,0,0,1,.63-1.738c.681-.95,2.041-1.036,3.209-1,2.462.077,5.857.452,7.783-1.431.366-.358.541-.907,1.114-.773.512.12.8.953,1.345,1.145a1.426,1.426,0,0,0,1.829-1.52A1.333,1.333,0,0,0,246.038,318.615Z" transform="translate(-218.07 -311.63)"/><path d="M212.182,366.381c-.527.409-1.191.764-1.377,1.406a8.71,8.71,0,0,0-.08,1.162,2.241,2.241,0,0,1-1.32,1.6,4.147,4.147,0,0,1-.822.286,1.557,1.557,0,0,1-1.274,1.145,6.627,6.627,0,0,0,2.1-.478,2.241,2.241,0,0,0,1.32-1.6,8.712,8.712,0,0,1,.08-1.162c.186-.641.859-1,1.377-1.406a6.13,6.13,0,0,0,2.107-4.68v-.784A6.092,6.092,0,0,1,212.182,366.381Z" transform="translate(-205.767 -342.751)"/></g></g></svg>